<svg width="272" height="249" viewBox="0 0 272 249" fill="none" xmlns="http://www.w3.org/2000/svg">
<path d="M22.373 29.6895H40.983C49.256 29.6895 56.664 34.8144 59.58 42.5564L85.957 112.576H175.178C180.876 112.576 185.924 108.898 187.669 103.474L200.636 63.1854" stroke="#00652E" stroke-width="5.1095" stroke-miterlimit="10" stroke-linecap="round"/>
<path d="M85.958 112.577L89.948 123.103C92.499 129.833 98.946 134.285 106.144 134.285H177.641" stroke="#00652E" stroke-width="5.1095" stroke-miterlimit="10" stroke-linecap="round"/>
<path d="M122.079 141.601C122.079 145.481 118.933 148.627 115.053 148.627C111.173 148.627 108.028 145.482 108.028 141.601C108.028 137.72 111.173 134.575 115.053 134.575C118.933 134.575 122.079 137.721 122.079 141.601Z" stroke="#00652E" stroke-width="5.1095" stroke-miterlimit="10" stroke-linecap="round"/>
<path d="M164.39 141.601C164.39 145.481 161.245 148.627 157.364 148.627C153.484 148.627 150.338 145.482 150.338 141.601C150.338 137.72 153.483 134.575 157.364 134.575C161.245 134.576 164.39 137.721 164.39 141.601Z" stroke="#00652E" stroke-width="5.1095" stroke-miterlimit="10" stroke-linecap="round"/>
<path d="M136.028 76.664C126.661 67.297 129.536 49.234 149.878 28.893C170.22 8.55101 209.692 3 209.692 3C209.692 3 204.141 42.473 183.799 62.814C168.543 78.07 154.569 83.502 144.583 81.312" stroke="#94AA24" stroke-width="5.1095" stroke-miterlimit="10" stroke-linecap="round"/>
<path d="M136.028 76.6642L193.033 19.6602" stroke="#94AA24" stroke-width="5.1095" stroke-miterlimit="10" stroke-linecap="round"/>
<path d="M150.731 61.9611V45.9541" stroke="#94AA24" stroke-width="5.1095" stroke-miterlimit="10" stroke-linecap="round"/>
<path d="M165.032 47.6602H178.23" stroke="#94AA24" stroke-width="5.1095" stroke-miterlimit="10" stroke-linecap="round"/>
<path d="M179.033 33.6599V24.8779" stroke="#94AA24" stroke-width="5.1095" stroke-miterlimit="10" stroke-linecap="round"/>
<path d="M121.176 78.0858C127.56 71.7018 125.6 59.3918 111.737 45.5288C97.8742 31.6658 70.9722 27.8818 70.9722 27.8818C70.9722 27.8818 74.7552 54.7838 88.6192 68.6468C99.0162 79.0448 108.54 82.7458 115.345 81.2538" stroke="#94AA24" stroke-width="5.1095" stroke-miterlimit="10" stroke-linecap="round"/>
<path d="M121.176 78.0863L82.3262 39.2373" stroke="#94AA24" stroke-width="5.1095" stroke-miterlimit="10" stroke-linecap="round"/>
<path d="M111.156 68.0662V57.1572" stroke="#94AA24" stroke-width="5.1095" stroke-miterlimit="10" stroke-linecap="round"/>
<path d="M101.409 58.3203H92.415" stroke="#94AA24" stroke-width="5.1095" stroke-miterlimit="10" stroke-linecap="round"/>
<path d="M85.9581 112.577H75.4551" stroke="#00652E" stroke-width="5.1095" stroke-miterlimit="10" stroke-linecap="round"/>
<path d="M80.707 98.6367H189.032" stroke="#00652E" stroke-width="5.1095" stroke-miterlimit="10" stroke-linecap="round"/>
<path d="M7.44778 176.75V187.08H18.7081V190.405H7.44778V201.044H20.0381V204.369H3.41356V173.425H20.0381V176.75H7.44778ZM24.6351 188.897C24.6351 185.883 25.3148 183.178 26.6744 180.785C28.0339 178.361 29.881 176.47 32.2159 175.11C34.5802 173.751 37.1958 173.071 40.0626 173.071C43.4319 173.071 46.3725 173.884 48.8847 175.509C51.3968 177.135 53.2292 179.44 54.3819 182.425H49.5497C48.6926 180.563 47.4513 179.129 45.8258 178.125C44.2298 177.12 42.3088 176.617 40.0626 176.617C37.9051 176.617 35.9693 177.12 34.2551 178.125C32.541 179.129 31.1962 180.563 30.2209 182.425C29.2456 184.257 28.758 186.415 28.758 188.897C28.758 191.35 29.2456 193.508 30.2209 195.37C31.1962 197.202 32.541 198.621 34.2551 199.626C35.9693 200.63 37.9051 201.133 40.0626 201.133C42.3088 201.133 44.2298 200.645 45.8258 199.67C47.4513 198.665 48.6926 197.232 49.5497 195.37H54.3819C53.2292 198.325 51.3968 200.616 48.8847 202.241C46.3725 203.837 43.4319 204.635 40.0626 204.635C37.1958 204.635 34.5802 203.97 32.2159 202.64C29.881 201.281 28.0339 199.404 26.6744 197.01C25.3148 194.616 24.6351 191.912 24.6351 188.897ZM74.396 204.679C71.5292 204.679 68.9136 204.014 66.5493 202.685C64.1849 201.325 62.3082 199.448 60.9191 197.054C59.5596 194.631 58.8798 191.912 58.8798 188.897C58.8798 185.883 59.5596 183.178 60.9191 180.785C62.3082 178.361 64.1849 176.484 66.5493 175.154C68.9136 173.795 71.5292 173.115 74.396 173.115C77.2924 173.115 79.9227 173.795 82.2871 175.154C84.6515 176.484 86.5134 178.346 87.873 180.74C89.2325 183.134 89.9122 185.853 89.9122 188.897C89.9122 191.941 89.2325 194.66 87.873 197.054C86.5134 199.448 84.6515 201.325 82.2871 202.685C79.9227 204.014 77.2924 204.679 74.396 204.679ZM74.396 201.177C76.5535 201.177 78.4893 200.675 80.2035 199.67C81.9472 198.665 83.3068 197.232 84.2821 195.37C85.2869 193.508 85.7894 191.35 85.7894 188.897C85.7894 186.415 85.2869 184.257 84.2821 182.425C83.3068 180.563 81.962 179.129 80.2479 178.125C78.5337 177.12 76.5831 176.617 74.396 176.617C72.209 176.617 70.2584 177.12 68.5442 178.125C66.83 179.129 65.4705 180.563 64.4657 182.425C63.4904 184.257 63.0027 186.415 63.0027 188.897C63.0027 191.35 63.4904 193.508 64.4657 195.37C65.4705 197.232 66.83 198.665 68.5442 199.67C70.2879 200.675 72.2385 201.177 74.396 201.177ZM138.4 173.691V204.369H134.365V181.494L124.169 204.369H121.332L111.091 181.449V204.369H107.057V173.691H111.401L122.75 199.049L134.099 173.691H138.4ZM163.506 197.498H150.029L147.547 204.369H143.291L154.462 173.647H159.117L170.245 204.369H165.989L163.506 197.498ZM162.353 194.217L156.768 178.612L151.182 194.217H162.353ZM191.383 204.369L184.024 191.735H179.148V204.369H175.113V173.47H185.088C187.423 173.47 189.388 173.869 190.984 174.667C192.61 175.465 193.822 176.543 194.62 177.903C195.418 179.262 195.817 180.814 195.817 182.558C195.817 184.686 195.196 186.562 193.955 188.188C192.743 189.813 190.91 190.892 188.457 191.424L196.216 204.369H191.383ZM179.148 188.498H185.088C187.275 188.498 188.916 187.966 190.009 186.902C191.103 185.809 191.649 184.361 191.649 182.558C191.649 180.725 191.103 179.307 190.009 178.302C188.945 177.297 187.305 176.795 185.088 176.795H179.148V188.498ZM218.842 204.369L206.119 190.272V204.369H202.085V173.47H206.119V187.789L218.887 173.47H223.985L209.976 188.942L224.118 204.369H218.842ZM232.658 176.75V187.08H243.918V190.405H232.658V201.044H245.248V204.369H228.624V173.425H245.248V176.75H232.658ZM270.371 173.47V176.75H261.948V204.369H257.914V176.75H249.446V173.47H270.371Z" fill="#00652E"/>
<path d="M76.4932 228.801V230.135H71.0294V234.373H75.4653V235.707H71.0294V241.369H69.3885V228.801H76.4932ZM80.1159 233.092C80.4045 232.527 80.8132 232.089 81.3421 231.776C81.8831 231.463 82.5383 231.307 83.3076 231.307V233.002H82.8749C81.0356 233.002 80.1159 234 80.1159 235.996V241.369H78.475V231.487H80.1159V233.092ZM94.218 236.05C94.218 236.362 94.1999 236.693 94.1639 237.041H86.2658C86.3259 238.015 86.6565 238.779 87.2575 239.332C87.8706 239.872 88.61 240.143 89.4755 240.143C90.1848 240.143 90.7738 239.981 91.2427 239.656C91.7235 239.319 92.0601 238.875 92.2525 238.322H94.0196C93.7551 239.271 93.2262 240.047 92.4328 240.648C91.6394 241.237 90.6536 241.531 89.4755 241.531C88.5378 241.531 87.6963 241.321 86.951 240.9C86.2177 240.48 85.6407 239.884 85.2199 239.115C84.7992 238.334 84.5888 237.432 84.5888 236.41C84.5888 235.388 84.7931 234.493 85.2019 233.723C85.6106 232.954 86.1816 232.365 86.9149 231.956C87.6603 231.536 88.5138 231.325 89.4755 231.325C90.4132 231.325 91.2427 231.53 91.9639 231.938C92.6852 232.347 93.2382 232.912 93.6229 233.633C94.0196 234.343 94.218 235.148 94.218 236.05ZM92.5229 235.707C92.5229 235.082 92.3847 234.547 92.1082 234.102C91.8317 233.645 91.453 233.303 90.9722 233.074C90.5033 232.834 89.9804 232.714 89.4034 232.714C88.5739 232.714 87.8646 232.978 87.2756 233.507C86.6985 234.036 86.368 234.769 86.2838 235.707H92.5229ZM99.8822 241.531C99.1248 241.531 98.4456 241.405 97.8446 241.153C97.2435 240.888 96.7686 240.528 96.42 240.071C96.0714 239.602 95.879 239.067 95.843 238.466H97.538C97.5861 238.959 97.8145 239.362 98.2232 239.674C98.644 239.987 99.191 240.143 99.8642 240.143C100.489 240.143 100.982 240.005 101.343 239.728C101.703 239.452 101.884 239.103 101.884 238.682C101.884 238.25 101.691 237.931 101.307 237.727C100.922 237.51 100.327 237.3 99.5216 237.096C98.7882 236.903 98.1872 236.711 97.7183 236.518C97.2615 236.314 96.8648 236.02 96.5282 235.635C96.2036 235.238 96.0413 234.721 96.0413 234.084C96.0413 233.579 96.1916 233.116 96.4921 232.696C96.7927 232.275 97.2194 231.944 97.7724 231.704C98.3254 231.451 98.9565 231.325 99.6658 231.325C100.76 231.325 101.643 231.602 102.317 232.155C102.99 232.708 103.35 233.465 103.398 234.427H101.758C101.721 233.91 101.511 233.495 101.126 233.183C100.754 232.87 100.249 232.714 99.6117 232.714C99.0227 232.714 98.5538 232.84 98.2052 233.092C97.8566 233.345 97.6823 233.675 97.6823 234.084C97.6823 234.409 97.7845 234.679 97.9888 234.896C98.2052 235.1 98.4697 235.268 98.7822 235.4C99.1068 235.521 99.5516 235.659 100.117 235.815C100.826 236.008 101.403 236.2 101.848 236.392C102.293 236.573 102.671 236.849 102.984 237.222C103.308 237.594 103.477 238.081 103.489 238.682C103.489 239.223 103.338 239.71 103.038 240.143C102.737 240.576 102.311 240.918 101.758 241.171C101.217 241.411 100.591 241.531 99.8822 241.531ZM110.71 231.307C111.455 231.307 112.128 231.469 112.729 231.794C113.331 232.107 113.799 232.581 114.136 233.219C114.485 233.856 114.659 234.631 114.659 235.545V241.369H113.036V235.779C113.036 234.793 112.79 234.042 112.297 233.525C111.804 232.996 111.131 232.732 110.277 232.732C109.412 232.732 108.72 233.002 108.203 233.543C107.698 234.084 107.446 234.872 107.446 235.905V241.369H105.805V228.025H107.446V232.894C107.771 232.389 108.215 231.998 108.78 231.722C109.357 231.445 110.001 231.307 110.71 231.307ZM131.794 241.369L130.153 239.71C129.54 240.347 128.885 240.822 128.188 241.135C127.49 241.435 126.703 241.586 125.825 241.586C124.96 241.586 124.19 241.429 123.517 241.117C122.856 240.804 122.339 240.359 121.966 239.782C121.606 239.205 121.425 238.532 121.425 237.763C121.425 236.885 121.672 236.116 122.165 235.455C122.67 234.781 123.409 234.252 124.383 233.868C123.998 233.411 123.722 232.99 123.553 232.605C123.385 232.221 123.301 231.8 123.301 231.343C123.301 230.814 123.433 230.339 123.698 229.919C123.974 229.486 124.365 229.149 124.87 228.909C125.375 228.668 125.958 228.548 126.619 228.548C127.268 228.548 127.833 228.674 128.314 228.927C128.795 229.179 129.155 229.534 129.396 229.991C129.636 230.436 129.744 230.935 129.72 231.487H128.079C128.091 230.995 127.953 230.61 127.665 230.333C127.376 230.045 127.003 229.901 126.547 229.901C126.066 229.901 125.675 230.039 125.375 230.315C125.086 230.58 124.942 230.922 124.942 231.343C124.942 231.704 125.038 232.053 125.23 232.389C125.435 232.726 125.771 233.14 126.24 233.633L129.991 237.402L130.315 236.897L131.542 234.841H133.309L131.83 237.402C131.626 237.763 131.385 238.141 131.109 238.538L133.94 241.369H131.794ZM125.825 240.179C126.474 240.179 127.058 240.053 127.574 239.8C128.103 239.548 128.602 239.157 129.071 238.628L125.375 234.914C123.836 235.503 123.066 236.434 123.066 237.709C123.066 238.418 123.319 239.007 123.824 239.476C124.341 239.945 125.008 240.179 125.825 240.179ZM145.189 231.307C145.935 231.307 146.608 231.469 147.209 231.794C147.81 232.107 148.279 232.581 148.615 233.219C148.964 233.856 149.138 234.631 149.138 235.545V241.369H147.516V235.779C147.516 234.793 147.269 234.042 146.776 233.525C146.283 232.996 145.61 232.732 144.757 232.732C143.891 232.732 143.2 233.002 142.683 233.543C142.178 234.084 141.926 234.872 141.926 235.905V241.369H140.285V228.025H141.926V232.894C142.25 232.389 142.695 231.998 143.26 231.722C143.837 231.445 144.48 231.307 145.189 231.307ZM160.835 236.05C160.835 236.362 160.817 236.693 160.781 237.041H152.883C152.943 238.015 153.273 238.779 153.875 239.332C154.488 239.872 155.227 240.143 156.093 240.143C156.802 240.143 157.391 239.981 157.86 239.656C158.341 239.319 158.677 238.875 158.869 238.322H160.637C160.372 239.271 159.843 240.047 159.05 240.648C158.256 241.237 157.271 241.531 156.093 241.531C155.155 241.531 154.313 241.321 153.568 240.9C152.835 240.48 152.258 239.884 151.837 239.115C151.416 238.334 151.206 237.432 151.206 236.41C151.206 235.388 151.41 234.493 151.819 233.723C152.228 232.954 152.799 232.365 153.532 231.956C154.277 231.536 155.131 231.325 156.093 231.325C157.03 231.325 157.86 231.53 158.581 231.938C159.302 232.347 159.855 232.912 160.24 233.633C160.637 234.343 160.835 235.148 160.835 236.05ZM159.14 235.707C159.14 235.082 159.002 234.547 158.725 234.102C158.449 233.645 158.07 233.303 157.589 233.074C157.12 232.834 156.597 232.714 156.02 232.714C155.191 232.714 154.482 232.978 153.893 233.507C153.316 234.036 152.985 234.769 152.901 235.707H159.14ZM162.388 236.392C162.388 235.382 162.592 234.499 163.001 233.742C163.41 232.972 163.969 232.377 164.678 231.956C165.399 231.536 166.199 231.325 167.076 231.325C167.942 231.325 168.693 231.512 169.33 231.884C169.967 232.257 170.442 232.726 170.755 233.291V231.487H172.414V241.369H170.755V239.53C170.43 240.107 169.943 240.588 169.294 240.972C168.657 241.345 167.912 241.531 167.058 241.531C166.181 241.531 165.387 241.315 164.678 240.882C163.969 240.449 163.41 239.842 163.001 239.061C162.592 238.28 162.388 237.39 162.388 236.392ZM170.755 236.41C170.755 235.665 170.605 235.016 170.304 234.463C170.003 233.91 169.595 233.489 169.078 233.201C168.573 232.9 168.014 232.75 167.401 232.75C166.788 232.75 166.229 232.894 165.724 233.183C165.219 233.471 164.816 233.892 164.516 234.445C164.215 234.998 164.065 235.647 164.065 236.392C164.065 237.15 164.215 237.811 164.516 238.376C164.816 238.929 165.219 239.356 165.724 239.656C166.229 239.945 166.788 240.089 167.401 240.089C168.014 240.089 168.573 239.945 169.078 239.656C169.595 239.356 170.003 238.929 170.304 238.376C170.605 237.811 170.755 237.156 170.755 236.41ZM176.828 228.025V241.369H175.187V228.025H176.828ZM181.626 232.84V238.664C181.626 239.145 181.728 239.488 181.933 239.692C182.137 239.884 182.492 239.981 182.996 239.981H184.205V241.369H182.726C181.812 241.369 181.127 241.159 180.67 240.738C180.213 240.317 179.985 239.626 179.985 238.664V232.84H178.705V231.487H179.985V228.999H181.626V231.487H184.205V232.84H181.626ZM191.098 231.307C191.843 231.307 192.516 231.469 193.117 231.794C193.718 232.107 194.187 232.581 194.524 233.219C194.872 233.856 195.047 234.631 195.047 235.545V241.369H193.424V235.779C193.424 234.793 193.177 234.042 192.684 233.525C192.191 232.996 191.518 232.732 190.665 232.732C189.799 232.732 189.108 233.002 188.591 233.543C188.086 234.084 187.834 234.872 187.834 235.905V241.369H186.193V228.025H187.834V232.894C188.158 232.389 188.603 231.998 189.168 231.722C189.745 231.445 190.388 231.307 191.098 231.307ZM206.238 231.487L200.288 246.021H198.593L200.54 241.261L196.555 231.487H198.376L201.478 239.494L204.543 231.487H206.238ZM208.411 241.477C208.098 241.477 207.834 241.369 207.617 241.153C207.401 240.936 207.293 240.672 207.293 240.359C207.293 240.047 207.401 239.782 207.617 239.566C207.834 239.35 208.098 239.241 208.411 239.241C208.711 239.241 208.964 239.35 209.168 239.566C209.384 239.782 209.493 240.047 209.493 240.359C209.493 240.672 209.384 240.936 209.168 241.153C208.964 241.369 208.711 241.477 208.411 241.477Z" fill="#94AA24"/>
</svg>
