<svg width="557" height="319" viewBox="0 0 557 319" fill="none" xmlns="http://www.w3.org/2000/svg">
<g clip-path="url(#clip0_202_2)">
<rect width="557" height="319" fill="white"/>
<path d="M551.747 216.776C551.747 217.408 551.748 218.671 551.12 218.671C551.12 219.302 551.12 219.934 551.12 219.934C551.748 219.934 551.747 220.566 552.375 220.566C553.003 220.566 553.631 215.519 553.003 214.887C552.375 214.25 551.747 214.882 551.747 216.776Z" fill="#009E45"/>
<path d="M529.168 173.877C529.168 173.245 527.912 170.725 526.662 168.199L524.779 164.415L522.895 165.047C520.39 165.678 520.39 165.678 517.25 161.263L516.623 160L514.117 161.263C513.489 161.895 510.356 163.784 507.844 165.047L503.455 168.199L504.083 170.725V173.877C503.455 174.508 502.827 175.14 503.455 175.772C503.455 179.555 502.827 182.081 502.199 182.713C500.944 182.713 500.944 183.976 500.944 191.543V200.373L497.81 201.636C494.049 202.899 494.049 203.531 494.049 206.051C494.049 208.572 491.544 214.25 490.916 214.25C490.916 214.25 490.916 214.25 490.916 214.882C490.916 216.145 489.032 216.776 488.41 215.513C487.782 215.513 486.526 215.513 484.649 217.408C481.515 219.302 480.887 219.934 480.26 223.086C479.004 226.869 478.376 228.133 472.737 240.746C467.72 250.208 467.72 250.208 467.72 254.623C467.72 258.407 467.72 259.038 466.464 259.67C465.837 260.301 463.331 262.19 461.447 264.085C458.936 265.979 457.058 267.868 457.058 267.868C456.43 267.868 455.802 268.5 455.175 269.763C453.919 271.026 452.663 272.915 452.041 273.546C450.786 274.178 450.786 274.81 451.414 276.067C452.041 276.698 452.041 277.33 452.041 277.33C452.041 277.33 450.158 277.962 447.024 278.593C444.519 279.225 441.379 280.488 440.124 281.113C438.868 281.745 437.612 283.008 436.99 283.008C436.99 284.903 436.363 284.903 435.107 284.903C433.851 284.271 431.345 284.903 430.09 284.903C427.584 285.534 426.956 286.166 426.956 287.429C426.956 288.692 425.701 289.324 423.823 288.061H421.939C421.939 288.692 421.311 291.213 421.311 294.371C420.684 300.68 420.684 300.68 424.445 301.943C425.701 302.575 426.95 303.207 426.95 304.47C427.578 305.733 428.834 305.733 431.34 306.364C433.223 306.996 435.729 307.628 436.984 307.628C438.24 307.628 438.868 308.259 440.746 309.522C442.629 312.048 443.257 312.049 447.018 312.674C449.53 313.306 452.035 313.937 453.291 313.937C455.802 314.569 459.564 314.569 463.953 313.306C466.458 312.674 467.714 312.674 468.342 313.937C468.97 313.937 470.226 315.2 471.476 315.2C472.731 315.832 473.981 315.832 475.237 315.832C478.37 316.464 489.032 315.2 492.171 313.937C494.055 313.306 495.933 312.674 496.561 312.674C504.089 310.779 506.595 309.522 508.478 307.628C509.734 306.364 510.984 305.101 510.984 304.476C511.612 303.844 512.239 303.844 513.495 303.844C516.001 305.107 520.396 303.212 523.529 299.429L527.918 295.014C529.802 293.119 531.68 289.967 532.307 288.704C533.563 287.441 534.191 286.809 534.819 286.809C534.819 286.809 535.447 286.178 535.447 285.546C535.447 284.915 541.719 274.19 543.597 271.669C545.48 269.775 549.87 260.945 551.12 257.161C552.375 254.009 552.375 253.378 551.747 251.483C551.12 250.22 551.12 248.963 551.12 248.331C551.12 248.331 550.492 247.068 549.236 246.436L547.98 245.173L549.864 240.126C551.12 237.6 552.37 233.185 553.625 230.665C554.253 228.139 554.881 224.355 555.509 223.092C556.137 221.829 556.765 218.677 556.765 216.782C557.392 213.63 556.764 212.999 554.881 209.209C552.997 206.683 551.12 203.531 549.236 202.268L546.731 199.116L547.358 192.806C547.358 185.865 547.986 186.496 541.086 181.45C538.574 179.555 536.069 177.666 535.441 177.035C534.185 175.772 532.935 175.772 531.052 175.772C529.168 175.772 529.168 175.14 529.168 173.877ZM426.323 299.411C426.323 300.043 426.323 300.674 426.323 300.674C425.067 300.674 425.067 299.411 424.439 298.154C424.439 297.522 424.439 297.522 424.439 297.522C424.439 298.154 423.811 298.786 423.183 298.786C423.183 298.786 422.555 296.891 423.183 294.371C423.811 289.955 423.811 289.955 425.067 290.587C425.695 291.219 426.323 291.85 426.323 295.002V299.411ZM509.1 166.941C511.605 165.678 516.001 163.158 516.001 163.789C516.628 163.789 517.884 166.316 517.884 166.941C517.884 166.941 515.379 167.573 513.495 168.836C510.984 170.099 509.106 170.731 508.478 171.362C507.85 171.994 507.222 171.994 506.595 170.099C506.595 169.462 507.222 168.83 509.1 166.941ZM510.984 171.988C513.495 170.725 522.901 167.573 523.529 167.573C524.157 167.573 526.662 173.251 526.662 175.14C527.29 176.403 526.663 176.403 523.529 177.035C521.024 177.035 516.628 178.298 513.495 179.555C509.734 180.818 506.595 182.081 506.595 182.081C505.967 182.081 505.967 180.818 505.967 178.929C505.967 175.771 506.595 174.508 510.984 171.988ZM429.456 303.826V303.195C429.456 302.563 430.084 302.563 430.084 302.563C430.084 302.563 430.712 302.563 430.712 303.195C430.712 303.201 430.084 303.826 429.456 303.826ZM435.101 305.089C431.967 305.089 431.968 304.458 431.34 297.522C430.712 293.739 430.712 293.107 430.084 293.107C429.456 293.107 428.828 293.107 429.456 294.371C429.456 295.634 429.456 296.265 428.828 296.265C427.572 296.265 427.572 289.324 428.828 287.435C430.084 286.172 433.845 285.54 435.101 286.804C436.356 287.435 436.356 288.698 436.984 295.002C436.984 299.417 437.612 303.201 437.612 303.832C438.234 304.458 437.612 305.089 435.101 305.089ZM464.575 310.768C461.441 312.031 455.169 312.031 450.152 311.399C443.251 310.136 443.251 310.136 442.629 300.674C441.374 293.733 441.374 293.107 440.124 293.733C440.124 294.365 440.124 296.253 440.751 298.78C441.379 301.306 441.379 304.458 441.379 305.089C441.379 306.984 441.379 306.984 440.751 305.721C438.868 303.195 437.618 284.271 440.124 283.014C444.513 281.119 447.024 280.488 450.158 279.862L453.919 279.231L455.803 284.277C457.058 286.798 458.308 291.219 459.564 293.107C460.192 295.002 462.069 298.154 462.697 300.674C463.325 302.569 464.581 305.721 465.203 306.984L467.086 310.136L464.575 310.768ZM505.967 306.984C504.083 308.247 495.305 311.399 490.288 312.031C489.032 312.031 487.782 312.662 487.154 312.662C485.271 313.294 476.492 313.926 473.987 313.294C472.731 312.662 471.481 312.031 470.854 311.399C469.598 310.136 465.837 303.201 464.581 299.411C463.953 297.517 462.069 294.365 460.82 291.213C459.564 288.692 458.314 284.903 457.058 283.014C456.43 281.119 455.802 277.967 455.175 276.704L453.919 274.81L455.175 272.289C457.68 269.763 467.72 260.933 468.97 260.933C469.598 260.933 472.731 264.085 476.498 267.874C479.632 271.658 484.021 276.073 485.905 277.967C490.921 282.383 497.194 289.324 500.955 293.107L506.6 298.786C508.484 300.049 509.734 301.312 509.734 301.938C509.728 302.569 507.222 305.721 505.967 306.984ZM548.608 248.945C549.864 250.208 549.864 250.84 549.236 250.84C548.608 250.208 548.608 250.208 549.236 251.471C549.864 252.103 550.492 253.997 549.864 255.886C548.608 259.038 544.847 266.611 541.713 271.026C539.83 273.552 537.952 277.336 536.696 279.225C532.307 286.798 521.645 299.411 518.512 300.674C517.256 301.306 516.007 301.306 514.751 301.306C513.495 301.306 506.6 295.628 501.583 289.95C499.078 288.055 495.938 284.271 494.061 282.383C491.555 280.488 487.788 276.704 485.282 274.184C469.604 257.149 468.976 257.149 469.604 252.103C469.604 251.471 472.737 244.53 475.876 238.226C479.01 231.285 482.149 224.349 482.149 223.086C482.777 220.56 485.283 218.039 486.538 218.671C487.794 218.671 488.422 218.671 488.422 218.039C489.05 217.408 493.439 218.671 497.2 220.56C504.723 224.975 521.657 233.179 522.285 233.179C522.285 233.179 523.541 233.179 524.169 233.811L530.441 236.963C532.325 238.226 535.458 239.483 537.342 240.746C539.226 242.009 540.475 243.273 541.103 243.273C541.103 243.273 542.359 243.904 544.237 245.167C545.492 245.799 546.748 247.062 546.748 247.062C547.358 247.056 547.986 247.688 548.608 248.945ZM554.253 214.25C554.881 218.033 551.747 231.285 547.98 239.483C547.352 241.378 546.097 243.267 546.097 243.267C545.469 243.267 539.196 240.115 537.319 238.852C536.063 237.588 531.046 235.068 526.029 232.542C510.978 225.6 499.688 219.928 497.81 218.665C496.555 217.402 494.677 216.77 494.049 216.77L492.793 216.139L494.049 213.618C494.677 212.355 495.305 209.835 495.933 207.94C496.56 204.788 496.561 204.157 498.444 203.525C502.205 202.262 506.595 200.999 517.256 199.742C525.407 198.478 538.58 199.11 543.597 201.005C547.358 202.268 553.625 209.203 554.253 214.25ZM538.574 182.081L539.83 183.976L537.946 183.344C535.441 182.713 536.063 183.976 539.202 185.239C541.708 185.871 542.335 186.502 542.335 190.286C542.335 191.549 542.336 192.18 542.963 191.549C543.591 190.917 543.591 189.654 543.591 189.029C542.963 187.765 543.591 187.765 544.219 187.765C544.847 187.765 545.475 187.765 544.847 192.812C544.847 195.964 544.219 198.49 544.219 198.49C544.219 198.49 542.963 198.49 541.713 197.859C541.086 197.859 535.441 197.227 530.424 197.227C522.273 196.596 519.762 197.227 513.489 197.859C502.2 199.753 502.199 199.753 502.827 196.596V189.654L503.455 185.239L512.234 182.087C517.251 180.824 522.268 178.935 524.151 178.935C533.557 177.66 532.307 177.66 538.574 182.081Z" fill="#009E45"/>
<path d="M536.696 196.59C539.202 197.221 540.458 197.221 541.713 195.327C542.341 194.063 542.969 193.432 542.969 192.8C543.597 192.169 541.713 192.169 541.085 193.432C541.085 193.432 540.458 193.432 539.83 193.432C538.574 192.8 537.946 194.063 539.202 194.695C540.458 195.327 539.83 195.327 538.574 195.327C537.318 194.695 535.441 194.695 535.441 194.063C534.813 193.432 534.185 193.432 534.813 194.695C534.813 195.327 535.441 195.958 536.696 196.59Z" fill="#009E45"/>
<path d="M551.12 213.618C550.492 214.881 551.747 214.881 552.375 213.618C553.003 212.987 553.003 212.355 551.748 211.092C550.492 209.197 545.475 206.045 544.847 206.677C544.219 206.677 544.847 207.309 545.475 207.94C549.864 210.466 551.748 212.361 551.12 213.618Z" fill="#009E45"/>
<path d="M539.202 264.085C539.202 264.085 539.83 264.716 540.458 264.716C541.086 264.716 541.713 262.822 541.086 262.19C540.458 261.564 538.574 263.453 539.202 264.085Z" fill="#009E45"/>
<path d="M537.952 270.395C537.325 269.131 537.324 269.763 537.324 270.395C537.324 271.658 537.325 272.289 537.952 272.289C538.58 272.289 539.208 271.658 539.208 271.658C539.202 271.026 538.574 270.395 537.952 270.395Z" fill="#009E45"/>
<path d="M541.086 247.688C544.219 249.582 545.475 249.582 544.847 248.951C544.847 248.319 537.324 243.273 537.324 243.904C536.696 244.53 537.952 245.793 541.086 247.688Z" fill="#009E45"/>
<path d="M542.969 257.149L542.342 257.781C542.342 258.412 542.341 259.044 541.714 259.044C541.714 259.044 541.714 259.676 541.714 260.307C541.714 260.939 541.714 261.57 542.342 261.57C542.342 261.57 542.969 260.939 542.969 260.307C542.969 259.044 542.969 259.044 543.597 259.044C543.597 259.044 544.225 258.412 544.225 257.781C544.219 257.149 543.591 257.149 542.969 257.149Z" fill="#009E45"/>
<path d="M534.185 274.178C534.185 274.81 534.185 275.441 534.813 275.441C535.441 275.441 536.069 274.81 536.069 274.178C536.069 272.921 534.185 272.921 534.185 274.178Z" fill="#009E45"/>
<path d="M545.475 238.22C544.847 238.22 543.591 238.22 543.591 238.22C542.963 238.22 542.335 236.957 541.086 236.325C539.83 235.694 538.574 235.062 538.574 235.062C536.691 235.062 537.946 235.694 539.83 237.582C542.963 239.477 542.335 239.477 539.202 237.582C534.813 235.062 530.424 231.904 529.796 230.641C529.168 230.01 528.54 229.378 528.54 230.01C527.284 231.273 534.813 236.951 541.708 240.103C545.469 241.998 545.469 241.998 546.097 240.103C546.73 239.483 546.73 238.852 545.475 238.22Z" fill="#009E45"/>
<path d="M549.864 228.127C549.236 228.127 549.236 229.39 549.236 230.021C549.236 230.653 548.608 231.285 547.98 231.285C547.352 231.285 547.353 231.916 547.353 232.548C547.353 233.811 548.608 233.179 549.236 231.285C550.492 229.39 550.492 227.501 549.864 228.127Z" fill="#009E45"/>
<path d="M546.731 233.805C545.475 233.805 545.475 233.805 545.475 234.436C546.103 235.7 545.475 235.7 543.591 235.068C541.086 233.805 541.708 235.7 544.219 236.963C546.103 237.594 546.103 237.594 547.353 236.331C548.608 234.436 548.608 234.436 546.731 233.805Z" fill="#009E45"/>
<path d="M543.591 252.103C542.336 251.471 542.335 251.471 542.335 252.103C542.335 252.734 542.336 253.366 542.963 253.366C544.219 253.997 544.219 253.997 542.963 253.997C542.336 253.997 542.335 254.629 542.335 255.261C542.335 255.261 542.963 255.892 543.591 255.892C544.847 255.892 544.847 255.261 544.847 255.261C544.847 254.629 544.847 254.629 544.847 254.629C546.103 254.623 546.103 253.36 543.591 252.103Z" fill="#009E45"/>
<path d="M539.83 248.313C539.202 248.945 539.202 248.313 542.335 250.84C544.841 252.734 546.097 252.734 546.097 252.103C546.103 250.84 540.458 247.688 539.83 248.313Z" fill="#009E45"/>
<path d="M551.747 221.823C551.12 221.823 549.864 224.975 549.864 226.238C549.864 227.501 550.492 227.501 551.12 226.238C551.12 225.606 551.12 224.343 551.747 223.712C552.375 222.454 552.375 221.823 551.747 221.823Z" fill="#009E45"/>
<path d="M531.68 276.704C532.307 278.599 533.563 277.967 533.563 276.073C533.563 274.81 532.935 274.178 532.935 274.178C531.679 274.178 531.052 275.441 531.68 276.704Z" fill="#009E45"/>
<path d="M526.663 286.166C526.035 286.166 524.779 284.903 523.529 284.271C522.901 283.64 521.646 283.008 521.646 283.008C519.762 282.377 521.018 284.271 523.529 285.529C526.035 288.055 527.918 288.055 527.918 286.792C527.918 286.166 527.29 286.166 526.663 286.166Z" fill="#009E45"/>
<path d="M509.728 291.213L501.578 283.014C495.305 277.336 494.055 276.073 494.055 276.704C494.055 276.704 495.311 278.599 497.188 280.488C505.967 288.686 507.85 290.581 510.356 292.476C514.117 296.259 514.117 294.996 509.728 291.213Z" fill="#009E45"/>
<path d="M517.256 294.365C514.751 293.101 500.322 279.225 500.322 277.962C500.322 277.33 499.694 276.698 499.066 276.698C498.438 276.698 497.81 276.698 497.81 277.33C497.81 278.593 505.961 286.792 512.861 292.47C515.367 294.365 517.251 296.253 517.878 296.253C519.134 296.259 519.134 294.996 517.256 294.365Z" fill="#009E45"/>
<path d="M497.816 305.089C497.816 305.721 496.56 306.353 495.933 306.353C495.305 306.353 495.305 306.353 495.305 306.984C495.305 308.247 495.933 308.247 496.561 307.616C496.561 306.984 497.188 306.984 497.816 306.984C498.444 307.616 499.072 306.984 499.072 305.721C499.066 305.089 498.438 304.458 497.816 305.089Z" fill="#009E45"/>
<path d="M517.257 291.213C516.001 289.95 514.123 288.061 512.239 286.798C509.734 283.646 507.85 283.646 509.106 285.534C509.734 286.166 511.612 288.061 514.123 289.95C516.629 291.844 518.512 293.101 519.14 293.101C519.762 293.733 519.134 292.476 517.257 291.213Z" fill="#009E45"/>
<path d="M492.171 307.616C489.038 307.616 488.41 308.247 489.038 308.879C489.038 309.51 489.666 309.51 490.294 309.51C490.921 308.879 492.177 308.879 492.799 308.879C493.427 308.879 494.055 308.247 494.055 308.247C494.049 307.616 493.421 307.616 492.171 307.616Z" fill="#009E45"/>
<path d="M529.168 280.488C529.168 279.856 528.54 279.856 527.912 279.856C527.284 279.856 527.285 281.119 528.54 281.751C530.424 282.383 531.052 281.751 529.168 280.488Z" fill="#009E45"/>
<path d="M516.628 286.798C513.495 284.277 512.867 283.646 512.867 284.277C512.867 284.909 516.628 289.324 519.768 291.219C522.273 293.113 523.529 293.113 523.529 291.85C523.529 291.85 522.273 290.587 521.024 290.587C520.39 289.95 517.884 288.061 516.628 286.798Z" fill="#009E45"/>
<path d="M487.155 308.247C486.527 306.984 485.271 308.247 485.899 309.51C486.527 310.142 488.405 310.142 488.405 309.51C488.405 308.873 487.782 308.247 487.155 308.247Z" fill="#009E45"/>
<path d="M527.918 283.64C527.29 283.64 526.663 283.64 526.035 283.008C524.779 282.377 524.779 282.377 524.779 283.008C524.779 283.64 524.779 284.271 525.407 284.271C527.29 285.535 529.168 285.535 529.168 284.271C529.168 283.64 528.54 283.64 527.918 283.64Z" fill="#009E45"/>
<path d="M523.523 288.061C522.895 288.061 521.018 286.166 519.762 284.909C517.251 282.388 517.25 282.388 517.25 283.014C517.25 283.646 518.506 285.534 519.762 286.798C521.646 288.692 523.523 289.324 524.151 289.324C525.407 289.95 525.407 288.686 523.523 288.061Z" fill="#009E45"/>
<path d="M452.035 306.984C452.035 306.984 452.035 307.616 452.035 308.247C452.663 309.51 453.919 309.51 453.919 308.247C453.919 306.984 452.663 306.353 452.035 306.984Z" fill="#009E45"/>
<path d="M449.524 306.984C448.896 306.984 448.268 306.353 448.268 305.089C447.64 302.569 446.385 303.195 447.013 305.721C447.013 306.353 447.641 308.241 447.641 308.873C447.641 309.505 447.641 309.505 448.896 309.505C450.152 309.505 450.78 308.873 450.78 308.873C450.78 306.984 450.152 306.353 449.524 306.984Z" fill="#009E45"/>
<path d="M435.101 301.937C434.473 301.937 433.845 300.674 433.845 300.043C433.845 299.411 433.217 298.78 432.589 298.78C431.962 298.78 431.961 301.306 433.217 303.195C433.845 304.458 433.845 304.458 435.101 303.826C436.356 303.201 436.356 301.937 435.101 301.937Z" fill="#009E45"/>
<path d="M482.765 307.616C482.137 307.616 482.138 309.51 483.393 310.142C484.021 311.405 485.277 311.405 485.277 310.142C485.271 309.505 484.015 307.616 482.765 307.616Z" fill="#009E45"/>
<path d="M445.763 305.721C445.763 303.195 443.879 298.148 443.257 298.78C442.629 299.411 443.885 305.089 445.141 307.61C445.141 308.873 445.769 308.873 446.396 308.873C446.396 308.241 446.396 308.241 446.396 307.61C445.763 307.616 445.763 306.353 445.763 305.721Z" fill="#009E45"/>
<path d="M478.998 306.353C478.37 306.353 478.37 308.247 480.254 309.505C480.882 310.768 482.765 311.399 482.765 310.768C482.765 310.136 479.626 306.353 478.998 306.353Z" fill="#009E45"/>
<path d="M477.748 309.505C477.12 308.873 476.493 306.978 475.865 305.721C475.865 304.458 475.237 303.826 474.609 303.826C473.981 303.826 474.609 306.347 475.865 308.873C477.12 310.768 478.37 312.025 478.37 312.025C479.626 312.031 479.626 310.768 477.748 309.505Z" fill="#009E45"/>
<path d="M457.052 308.247C455.169 308.247 453.919 308.879 454.547 310.142C454.547 310.142 455.175 310.142 455.803 310.142C455.803 309.51 457.058 309.51 457.686 309.51C459.558 309.505 458.93 308.247 457.052 308.247Z" fill="#009E45"/>
<path d="M470.848 301.306C470.22 299.411 469.592 298.154 468.964 298.154C468.336 298.154 468.964 300.674 470.848 304.464L472.731 308.247L470.848 306.353C468.964 303.832 466.459 298.154 464.575 292.476C463.947 291.213 463.319 289.95 462.692 289.95C462.064 289.95 462.064 289.95 464.575 296.259C467.709 303.826 470.848 310.136 472.098 308.873C472.726 308.873 472.725 308.873 473.353 310.136C473.981 310.768 474.609 311.399 475.237 311.399C475.865 311.399 475.237 310.136 473.981 308.247C472.732 306.353 471.476 303.201 470.848 301.306Z" fill="#009E45"/>
<path d="M60.5355 197.593C61.1467 196.983 60.5355 196.374 60.5355 196.374C59.9242 195.765 59.3129 195.155 58.7016 193.943C58.0903 193.333 56.8678 192.724 56.8678 192.724C56.8678 193.333 57.479 194.552 58.7016 195.765C59.9242 196.983 60.5355 197.593 60.5355 197.593Z" fill="#009E45"/>
<path d="M62.9749 192.724C63.5861 192.115 61.141 190.287 60.5354 190.896C59.9241 190.896 60.5354 191.505 60.5354 192.115C61.7523 193.333 62.3636 193.333 62.9749 192.724Z" fill="#009E45"/>
<path d="M63.5864 189.677C63.5864 188.459 62.3638 187.849 61.7525 188.459C61.7525 188.459 61.7525 189.068 61.7525 189.677C62.3638 190.896 63.5864 190.896 63.5864 189.677Z" fill="#009E45"/>
<path d="M59.9241 193.943C60.5354 195.161 61.1468 195.161 61.1468 194.552C61.7581 193.942 59.3128 191.511 58.7015 192.12C58.0902 192.114 58.7016 193.333 59.9241 193.943Z" fill="#009E45"/>
<path d="M52.5944 235.935C51.9831 234.716 51.9832 234.716 51.9832 237.153C51.9832 238.372 51.9832 239.591 51.9832 239.591C52.5945 240.194 53.2057 237.757 52.5944 235.935Z" fill="#009E45"/>
<path d="M57.4794 201.243C57.4794 201.243 58.0906 201.852 59.3132 201.852C59.9245 201.852 60.5357 201.243 59.9244 200.634C59.9244 200.024 59.9244 199.415 59.9244 199.415C60.5357 199.415 55.0397 193.327 54.4284 193.327C53.8172 193.327 54.4285 193.937 55.6511 195.765C58.7018 198.806 59.313 200.024 58.7017 200.024C58.0904 200.024 56.2623 198.196 54.4284 196.374C51.989 195.155 50.1551 193.943 50.1551 193.943C49.5439 194.552 52.5947 197.593 55.6511 199.421C56.868 200.024 57.4794 200.634 57.4794 201.243Z" fill="#009E45"/>
<path d="M48.3212 239.585C48.3212 238.366 47.7101 236.544 47.0988 237.148C47.0988 237.148 47.0988 237.757 47.0988 238.976C47.7101 240.804 48.9325 240.804 48.3212 239.585Z" fill="#009E45"/>
<path d="M41.6027 238.976C41.6027 237.757 41.6025 237.757 40.9913 237.757C40.38 237.757 40.38 238.976 40.9913 239.585C41.6025 240.194 41.6027 240.194 41.6027 238.976Z" fill="#009E45"/>
<path d="M50.1551 237.757C50.7664 237.148 50.1551 236.538 50.1551 235.929C49.5438 235.32 49.5439 235.929 49.5439 237.148C49.5439 237.757 49.5439 238.976 49.5439 238.976C50.1552 238.976 50.1551 238.976 50.1551 237.757Z" fill="#009E45"/>
<path d="M59.3132 282.796C59.9245 282.186 56.8735 278.536 56.2623 279.146C56.2623 279.146 56.2624 280.364 56.8737 280.973C58.0906 283.405 58.7019 283.405 59.3132 282.796Z" fill="#009E45"/>
<path d="M59.9243 279.755C59.9243 278.536 59.9242 278.536 60.5355 278.536C61.1468 278.536 61.147 277.927 61.147 277.317C60.5357 276.708 60.5357 276.708 59.3131 277.317C58.7018 277.317 58.0905 277.927 58.0905 277.927C58.0905 277.927 58.0904 278.536 58.7017 279.755C59.313 281.577 60.5356 281.577 59.9243 279.755Z" fill="#009E45"/>
<path d="M58.0903 284.624C58.0903 283.405 55.651 280.364 55.0397 280.364C54.4284 280.364 54.4283 280.364 55.6509 283.405C56.8678 285.842 58.0903 286.446 58.0903 284.624Z" fill="#009E45"/>
<path d="M100.218 281.577C98.9954 281.577 98.9954 282.186 100.218 284.014C100.829 284.624 101.44 285.842 101.44 286.452C101.44 287.67 102.052 287.67 102.663 287.061C103.274 286.446 100.829 281.577 100.218 281.577Z" fill="#009E45"/>
<path d="M97.1671 286.446L95.9447 288.274C95.3334 288.883 95.3332 290.102 95.3332 290.706C95.3332 291.315 94.722 292.534 94.722 292.534C94.1108 292.534 93.4995 292.534 92.8882 293.752C91.6656 294.361 91.6656 294.971 91.6656 295.58C91.6656 296.19 92.2769 296.189 94.105 293.752C95.3276 292.534 96.5502 291.321 97.7671 290.711C98.9897 290.102 98.9896 290.102 98.3783 288.28L97.1671 286.446Z" fill="#009E45"/>
<path d="M98.3896 287.055C99.0009 287.665 99.6122 288.883 100.223 288.883C101.446 288.883 101.446 288.274 99.6123 285.842C97.7784 284.014 97.7783 284.624 98.3896 287.055Z" fill="#009E45"/>
<path d="M79.4628 279.145C78.8515 278.536 78.8513 277.927 78.8513 277.927C78.8513 277.317 78.2403 277.317 77.629 277.317C77.0177 277.317 77.6288 280.358 78.8513 281.577C79.4626 282.796 79.4627 282.796 78.2402 282.186C77.6289 282.186 77.629 282.186 77.629 282.796C77.629 284.014 79.4628 290.096 80.0684 290.705C80.0684 290.705 80.6797 291.315 80.0684 291.924C80.0684 292.533 79.4571 291.924 78.8458 289.492C77.6232 287.664 77.0119 286.452 76.4063 286.452C75.795 286.452 75.7951 286.452 77.629 292.539C80.0684 298.017 80.0682 299.236 78.8513 297.408C78.2401 296.799 77.629 294.971 77.629 293.148C76.4064 289.498 74.5782 287.061 75.1895 289.498C75.1895 290.107 75.1894 291.326 75.8007 292.539C76.412 293.148 77.0234 294.976 77.0234 296.189C77.0234 297.408 77.6344 298.627 78.2457 299.23C78.2457 299.84 78.8571 299.84 79.4684 299.23C80.691 298.621 80.6909 297.402 81.3022 294.971C81.9021 289.492 80.6797 279.755 79.4628 279.145Z" fill="#009E45"/>
<path d="M114.872 269.408C115.483 268.798 116.094 265.757 116.705 262.107C117.928 254.807 117.928 254.807 118.539 254.197C119.151 252.979 119.151 250.547 119.762 244.459C120.373 239.591 120.373 238.981 119.15 235.331C117.928 231.071 117.317 231.071 118.539 228.025C119.151 223.156 119.151 223.156 117.317 221.328C115.483 218.896 115.483 218.896 116.094 215.24C116.094 213.412 116.705 210.981 117.317 210.371C117.317 209.153 115.483 203.675 114.266 203.675C113.043 203.065 113.044 201.237 113.655 198.196C114.266 193.327 114.266 192.718 113.043 192.718C112.432 192.718 111.821 191.499 111.21 190.89C109.376 188.453 108.764 189.062 108.764 193.327C108.764 196.368 105.714 211.584 103.88 219.5C102.657 223.76 102.046 225.588 99.6064 230.456C98.9951 232.894 98.3838 234.716 98.3838 234.716C98.3838 235.935 93.4994 243.844 91.0543 247.495C87.3923 252.364 83.1188 256.623 83.7301 255.405C84.3414 252.967 86.7809 246.276 87.3922 242.626C88.0035 238.976 88.0035 237.757 87.3922 234.716C86.7809 229.847 86.1697 228.628 84.9471 229.847C84.3359 231.066 83.7245 231.066 83.7245 229.238C83.1132 228.019 82.5019 227.41 81.8906 228.628C81.2794 229.238 81.2792 229.847 81.2792 231.06C81.2792 232.279 81.2793 234.71 80.668 236.538L80.0568 240.189V236.538C79.4455 234.101 79.4455 232.888 78.223 232.888C77.6117 232.279 77.6116 232.888 77.0003 235.325C77.0003 237.153 76.3889 239.585 75.7776 240.804C74.5551 242.631 74.555 243.241 74.555 242.022C73.9437 239.591 72.7212 240.194 71.5044 242.632C70.8931 243.85 69.0648 245.672 67.8423 246.282C65.4028 248.719 64.7916 248.719 64.7916 244.454C65.4029 242.016 64.7917 240.804 64.1804 240.194C63.5691 239.585 63.5691 239.585 64.1804 239.585C66.0143 239.585 67.8423 236.544 69.0649 231.675C70.2875 229.243 71.5044 224.978 72.727 222.547C75.1665 216.459 75.7778 211.59 75.1665 209.768C74.5552 209.158 75.1664 207.331 77.0003 201.249C82.4962 186.642 84.9356 182.382 97.15 172.645C102.035 168.385 106.308 165.344 109.364 163.516C110.587 162.907 113.026 161.084 114.86 159.257C116.083 158.038 117.911 157.429 117.911 157.429C118.522 157.429 120.35 155.601 122.184 153.778C125.235 150.737 125.846 150.128 127.069 145.868C127.68 142.828 128.903 139.781 128.903 139.172C129.514 137.344 127.069 137.953 126.457 139.781C125.235 141.609 116.688 151.347 112.415 154.388C108.753 157.429 100.812 162.297 97.7612 164.125C95.3217 165.344 92.8766 166.563 91.654 167.776C89.8202 168.385 89.2146 168.994 89.2146 168.994C89.2146 168.994 89.2145 167.776 89.8258 166.563C91.0483 165.344 92.2653 160.475 93.4879 156.825C97.7612 142.218 97.7613 142.218 97.15 134.918C97.15 126.399 95.9272 123.961 94.099 123.961C93.4878 123.961 92.2655 123.352 91.6599 122.743C89.2204 120.915 87.3866 122.743 89.2204 125.18C94.105 131.267 92.8822 147.087 87.3863 159.262C86.775 160.481 86.1638 162.912 85.5525 163.522C84.9412 165.35 83.1131 167.781 78.2285 175.697C77.006 176.916 77.0059 176.916 75.7891 175.697C75.1778 175.088 74.5666 174.478 75.1779 173.869C76.4005 172.65 76.4003 170.219 74.5664 169.609C73.3439 169.609 73.3439 169 77.0059 158.044C78.8398 153.175 80.0568 147.696 80.0568 145.265C80.6681 142.827 81.2794 139.787 81.8906 138.568C82.5019 136.74 83.1131 136.136 82.5018 135.527C81.2793 134.918 80.6679 135.527 78.8397 138.568C78.2284 139.787 76.4003 141.609 74.5664 142.828C70.9044 145.265 66.6312 149.524 65.4087 151.347C64.7974 152.565 64.7974 152.565 62.9692 151.347C61.1353 150.128 60.5298 150.128 58.6959 150.737C56.2565 151.956 54.4227 153.778 53.8114 156.216C53.8114 156.216 53.1999 158.044 51.9773 159.257C48.3153 162.907 44.6476 168.994 41.5969 174.473C40.3743 178.123 38.5464 181.169 37.9351 181.773C37.3238 181.773 37.3236 182.992 37.3236 183.601C37.3236 184.21 36.101 185.429 35.4898 186.642C34.2672 187.861 33.0504 189.683 32.4391 191.511C31.2165 195.77 28.777 200.639 25.7205 206.118C24.4979 207.946 22.67 210.986 22.0587 212.205C21.4474 213.424 20.2249 215.246 20.2249 215.855C19.6136 215.855 19.0022 217.683 19.0022 218.896C19.0022 220.115 17.7796 223.156 16.5627 224.984C15.3402 228.025 15.3403 228.634 15.9516 229.853C16.5628 230.462 16.5627 231.071 15.3401 233.503C12.9007 238.372 11.6782 248.11 12.2895 257.238C12.9007 262.107 12.9007 266.367 12.2895 267.585C11.6782 270.017 11.6783 270.626 15.9516 278.542C20.8361 287.67 23.8868 293.149 28.1658 297.408C31.8278 300.449 34.273 301.668 42.2084 303.496C45.2591 304.714 48.9266 305.324 50.1435 305.324C50.7548 305.933 53.8056 306.542 55.6394 306.542C57.4733 307.152 59.9129 307.761 60.5242 307.761C62.358 308.37 70.2932 307.761 73.9552 306.542C78.2285 305.933 89.8315 301.673 92.8823 299.845C98.9894 296.195 102.651 293.758 105.702 290.717C108.147 287.676 112.421 280.979 113.032 277.938C113.655 273.667 114.872 270.017 114.872 269.408ZM122.813 148.904C123.424 148.904 124.035 148.904 124.035 149.513C124.035 150.122 122.813 150.122 122.201 150.122C120.979 149.513 120.979 148.904 122.813 148.904ZM119.756 152.554C119.756 153.163 119.756 153.773 119.756 153.773C119.145 153.773 118.533 153.773 118.533 153.163C118.539 151.945 119.151 151.945 119.756 152.554ZM117.317 154.382C117.317 154.991 117.317 155.601 116.705 155.601C116.094 155.601 116.094 154.991 116.094 154.382C116.094 153.163 117.317 153.163 117.317 154.382ZM114.872 155.595C114.872 156.204 115.483 156.814 114.872 156.814C114.872 157.423 114.26 156.204 114.26 155.595C114.266 155.595 114.266 155.595 114.872 155.595ZM112.432 157.423C113.043 157.423 113.655 157.423 113.655 158.032C113.655 158.641 113.043 159.251 113.043 159.251C112.432 159.251 111.821 158.641 111.821 158.032C111.821 157.423 111.821 157.423 112.432 157.423ZM110.598 158.641C110.598 159.251 111.21 159.86 110.598 159.86C110.598 160.469 109.987 159.251 109.987 158.641C109.987 158.641 109.987 158.641 110.598 158.641ZM107.547 160.464C108.159 159.854 108.159 159.854 108.77 160.464C108.77 161.073 108.77 161.682 108.159 162.292C108.159 162.292 107.548 162.292 106.936 162.292C106.325 162.901 106.325 161.073 107.547 160.464ZM105.102 162.901C105.102 162.292 105.102 162.292 105.102 162.292C105.102 162.292 105.714 162.292 105.714 162.901C105.714 163.51 105.714 164.12 105.102 164.12C105.102 164.12 105.102 163.51 105.102 162.901ZM102.052 163.51C102.663 162.901 103.274 164.12 103.274 165.338C103.885 165.948 102.663 165.948 102.052 165.338V163.51ZM99.6123 165.333C100.224 164.723 101.446 165.942 101.446 166.551C101.446 167.161 100.835 167.77 100.835 167.77C100.218 167.77 99.001 165.333 99.6123 165.333ZM97.167 166.551C97.7783 166.551 99.0008 167.77 99.0008 168.983L98.3896 169.592C97.1671 169.598 96.5557 167.161 97.167 166.551ZM95.9446 168.379C95.9446 168.379 96.5558 168.989 96.5558 170.207C96.5558 170.817 95.9446 171.426 95.9446 171.426C95.3333 171.426 95.3331 170.207 95.3331 169.598C95.3331 168.379 95.3333 168.379 95.9446 168.379ZM93.5052 168.989C93.5052 168.379 94.1163 168.989 94.1163 169.598C94.1163 170.207 94.1162 171.426 94.7275 171.426C95.3388 172.035 95.3388 172.645 94.7275 172.645C93.505 172.639 92.8939 169.598 93.5052 168.989ZM92.2825 171.42C92.8938 172.639 92.8937 173.852 92.8937 173.852C92.2824 173.852 91.671 173.242 91.671 172.024C90.4485 169.598 91.6712 168.989 92.2825 171.42ZM94.7275 144.035L94.1163 144.644V144.035C94.1163 143.425 94.1162 143.425 94.7275 143.425C94.7275 143.425 94.7275 143.425 94.7275 144.035ZM94.7275 141.597C94.1162 141.597 94.1163 140.988 94.1163 140.988C94.1163 140.379 94.1162 140.379 94.7275 140.379C94.7275 140.379 95.339 140.379 95.339 140.988L94.7275 141.597ZM95.9446 137.338C95.9446 137.338 95.3332 137.947 94.722 137.947C94.1107 137.947 94.1105 137.338 94.1105 136.729C94.7275 136.729 95.9446 136.729 95.9446 137.338ZM94.7275 134.906C94.1162 134.906 94.1163 134.906 94.1163 133.688C94.1163 133.078 94.1163 132.469 94.1163 132.469C94.7276 132.469 94.7275 132.469 94.7275 133.078C94.1162 133.688 94.7277 134.297 95.339 134.906H94.7275ZM94.1163 130.037C94.7276 130.037 94.7275 130.037 94.7275 130.647C94.7275 130.647 94.1164 131.256 93.5052 131.256C92.8939 131.25 92.8938 130.647 94.1163 130.037ZM92.2825 153.163H92.8937C92.8937 153.773 92.2825 154.382 92.2825 154.382C91.6712 154.382 91.671 154.382 91.671 154.382C91.671 153.773 91.6712 153.163 92.2825 153.163ZM90.4487 159.251C90.4487 159.251 91.0599 159.251 91.0599 159.86L90.4487 160.469C89.8374 160.469 89.8372 159.86 89.8372 159.86C89.8429 159.251 89.8431 159.251 90.4487 159.251ZM94.1163 246.891C95.3389 245.672 100.223 235.935 103.274 228.025C103.885 225.588 105.108 220.724 106.325 217.678C109.376 201.243 110.598 197.593 110.598 196.374C110.598 195.765 110.598 194.546 110.598 194.546C111.21 194.546 111.21 198.196 111.21 202.456C111.21 214.022 109.376 228.628 107.547 235.32C106.325 238.97 106.936 240.189 107.547 238.97C109.381 237.142 111.821 223.754 112.432 211.584C113.043 205.497 113.043 205.497 114.266 207.325C114.877 209.153 114.877 209.762 114.266 214.022C114.266 216.459 113.655 221.932 113.043 225.587C113.043 229.238 112.432 233.497 111.821 235.325C110.598 240.194 110.598 243.235 111.821 243.235C112.432 243.235 113.043 242.626 113.043 240.798C113.043 239.579 113.043 236.538 114.266 233.497C114.877 229.847 114.877 226.197 114.877 224.978C114.877 223.15 115.489 222.541 115.489 222.541C116.711 222.541 117.322 224.369 116.711 225.582C116.711 225.582 116.1 229.841 115.489 234.71C114.877 239.579 114.266 244.448 114.266 245.667C113.655 247.495 114.266 248.098 114.877 247.495C115.488 247.495 116.1 245.057 116.711 240.189C116.711 238.361 117.323 236.538 117.323 236.538C117.323 235.929 117.934 237.148 117.934 238.366C118.545 242.016 117.934 249.932 116.1 256.014C114.877 259.055 114.266 261.492 114.266 261.492C114.266 261.492 113.655 260.273 113.043 258.451C110.604 253.582 108.159 251.151 103.274 249.932C101.44 249.323 99.001 248.713 97.7784 248.104C93.5051 247.495 93.5051 246.891 94.1163 246.891ZM108.77 255.41C108.77 256.02 108.159 256.629 108.159 256.629C107.548 256.629 107.547 256.629 107.547 256.629C107.547 256.02 107.548 255.41 108.159 255.41H108.77ZM102.052 251.76V253.588C101.44 254.197 101.44 254.197 101.44 252.979C101.44 252.364 101.44 251.76 102.052 251.76ZM98.3896 251.151C98.3896 251.151 98.3896 251.151 98.3896 251.76C98.3896 251.76 97.7783 252.369 97.167 252.369V251.76C97.167 251.151 97.7784 251.151 98.3896 251.151ZM85.5639 238.976C85.5639 238.366 85.5639 237.148 85.5639 237.148C86.1752 236.538 86.1753 241.407 84.9527 245.057C84.3414 246.276 83.7302 248.708 83.1189 250.536C81.8963 255.405 79.457 260.273 78.2344 259.664C78.8457 260.273 77.0118 263.924 75.7949 264.533C73.9611 265.752 72.1327 265.752 72.744 263.924C73.3553 263.314 73.9667 262.705 73.9667 262.096C74.578 261.486 75.1892 260.877 74.5779 260.877C74.5779 260.268 74.578 259.658 75.1893 259.049C75.8006 258.44 78.24 255.399 80.0738 252.352C83.1245 247.495 85.5639 242.022 85.5639 238.976ZM78.8512 246.282C79.4625 246.282 80.6852 244.454 81.2965 242.022L82.5191 237.763V240.804C82.5191 244.454 81.2963 246.891 76.4117 253.582C73.9723 257.842 70.3047 262.101 69.6934 262.101C69.6934 262.101 68.4708 262.711 67.8596 263.929C66.637 264.539 66.0257 265.757 65.4201 265.757C64.8145 265.757 63.5863 265.757 63.5863 266.367C62.3637 267.585 61.7524 267.585 61.1468 266.367C61.1468 266.367 61.1467 265.757 61.758 265.148C62.3693 265.148 63.5919 263.929 65.4201 262.711C67.254 260.883 69.0822 260.279 69.0822 260.279C69.6935 260.279 70.3046 260.279 70.3046 259.67C70.3046 259.06 70.3048 258.451 70.916 257.842C72.7499 256.623 76.4119 251.145 77.0232 248.713C77.6288 247.495 78.2399 246.282 78.8512 246.282ZM67.2481 268.189C67.2481 268.798 66.6369 269.408 66.6369 269.408C66.0256 269.408 66.0257 269.408 66.0257 269.408C66.0257 268.798 66.0256 268.189 66.6369 268.189H67.2481ZM64.1974 278.536C64.1974 277.927 64.1974 277.317 64.1974 277.317C64.8087 277.317 65.4201 277.317 65.4201 277.927C65.4201 279.145 64.8087 279.145 64.1974 278.536ZM64.8089 280.973L64.1974 281.583L63.5863 280.973C63.5863 280.364 63.5863 280.364 63.5863 280.364C64.1975 280.364 64.8089 280.364 64.8089 280.973ZM72.1328 251.151C72.1328 251.151 73.3554 249.932 74.5723 247.5C75.7949 245.672 76.4061 243.85 76.4061 244.459C77.0174 245.678 72.7441 252.979 70.9102 254.807C70.2989 256.025 67.8595 257.848 64.8031 260.285C59.9185 263.935 58.696 264.544 58.0847 263.935C57.4734 263.326 58.0845 262.716 59.3071 262.716C61.141 262.716 67.2425 257.238 69.0763 254.197C70.3046 252.973 71.5216 251.151 72.1328 251.151ZM77.0173 195.765C75.1835 200.634 72.744 208.543 72.744 207.33C72.1327 205.503 74.5781 195.161 75.7949 192.724C77.0175 190.896 77.0175 190.896 77.6288 191.505C78.2401 192.115 78.24 192.724 78.24 192.724C77.6287 192.724 77.6286 193.942 77.0173 195.765ZM81.2906 184.199V184.808C80.6793 186.636 80.6795 186.636 80.0682 186.636C78.8457 186.027 78.8457 185.418 80.0682 183.595C80.6795 181.767 81.2908 181.767 81.9021 182.377C82.5134 182.986 83.1245 184.205 83.1245 184.205C82.5132 185.418 81.9019 185.418 81.2906 184.199ZM82.5133 181.767C81.902 181.158 81.902 179.939 82.5133 179.33C82.5133 179.33 83.1246 179.33 83.7359 180.549C84.9585 182.986 84.3471 183.595 82.5133 181.767ZM86.1754 176.898C86.1754 175.68 85.5641 175.07 86.1754 174.461C86.7867 174.461 87.3977 174.461 87.3977 175.68C88.6203 178.117 87.3979 179.336 86.1754 176.898ZM89.2319 175.68C89.2319 175.68 88.6204 175.68 88.6204 175.071C88.0091 173.243 88.0093 173.242 89.2319 174.461C89.2319 175.07 89.2319 175.68 89.2319 175.68ZM88.0092 163.51C88.0092 162.292 88.6206 161.079 89.2319 161.682V163.51C88.6206 164.12 87.3979 164.12 88.0092 163.51ZM86.7866 165.942C86.7866 165.333 86.7865 165.333 87.3977 165.333C88.009 165.333 88.0092 165.333 88.0092 165.942C88.0092 165.942 87.3978 166.551 86.7866 166.551V165.942ZM86.1754 167.77C86.1754 167.77 86.7866 167.77 86.7866 168.379C86.7866 168.989 86.1754 169.598 86.1754 169.598C85.5641 169.598 85.5639 168.989 85.5639 168.379C85.5639 167.77 85.5641 167.77 86.1754 167.77ZM84.9583 180.549C84.9583 180.549 84.9583 179.33 84.9583 178.721C84.9583 176.893 84.9585 176.893 85.5698 178.111C86.1753 179.336 85.5639 181.158 84.9583 180.549ZM84.9583 170.202C84.9583 170.811 85.5696 171.42 84.9583 171.42C84.9583 172.03 84.3471 170.811 84.3471 170.202C84.3471 170.202 84.347 170.202 84.9583 170.202ZM82.5133 172.639C83.1246 172.03 84.3471 172.639 84.3471 173.858L83.7359 174.467C82.5133 174.467 81.902 173.248 82.5133 172.639ZM81.2906 174.467C81.2906 174.467 81.9021 174.467 81.9021 175.076C82.5134 175.686 82.5133 176.295 82.5133 176.295C81.2907 176.289 80.6793 175.07 81.2906 174.467ZM79.4626 176.898C80.6852 176.289 81.9078 176.898 81.2965 178.117L80.685 178.726C79.4624 178.726 78.8513 177.508 79.4626 176.898ZM79.4626 179.336C80.0739 179.945 80.0739 180.554 79.4626 181.164C78.8513 181.164 78.24 181.164 78.24 180.554C77.0174 179.336 78.2401 178.726 79.4626 179.336ZM77.6288 188.464C77.6288 188.464 78.2399 188.464 78.8512 189.074C80.0737 190.902 80.0738 190.902 78.24 189.683C77.6287 189.074 77.0175 188.464 77.6288 188.464ZM77.0173 182.377C77.6286 181.158 77.6287 183.595 76.4061 186.027C75.7948 187.246 74.5723 190.286 73.9667 192.114C72.7441 195.765 72.1327 196.983 72.744 193.942C73.3553 190.896 76.406 182.986 77.0173 182.377ZM59.313 154.382C59.9243 154.382 60.5353 153.773 60.5353 153.163C61.7579 150.732 64.1974 153.163 64.1974 156.204C64.1974 156.814 63.5861 158.032 62.9748 159.245C61.7522 161.073 59.9242 161.073 58.0903 159.245C56.8677 158.636 56.8677 158.026 56.8677 158.026C56.8677 156.814 58.7017 154.382 59.313 154.382ZM28.7829 203.675C31.2223 199.415 33.6674 195.155 33.6674 195.155C33.6674 194.546 33.6674 193.327 33.6674 193.327C34.2786 192.109 34.89 192.718 37.3295 195.155C39.1633 196.983 41.6027 198.806 43.4366 199.415C46.4873 201.243 51.3719 201.243 51.9832 200.024C52.5945 199.415 50.7606 198.196 49.5437 198.196C48.3211 198.806 42.2139 194.546 39.7745 191.499C37.335 187.849 36.7238 186.021 37.9406 185.412C37.9406 185.412 40.3858 181.762 42.2139 177.502C44.0421 173.243 46.4873 168.983 47.7099 168.374C48.9325 167.155 50.7606 164.723 51.9832 162.895C53.817 159.854 55.034 158.636 55.6453 160.458C56.2566 161.677 59.9186 163.499 61.7524 162.895C62.975 162.895 65.4144 159.245 66.0257 156.199C66.0257 154.98 66.637 153.158 67.8596 151.33C68.4708 150.111 74.5781 144.633 75.7949 144.633C75.7949 144.023 77.0175 144.023 77.6288 143.414C78.8514 142.195 78.8513 142.195 78.24 144.633C78.24 145.851 77.6288 147.674 77.6288 148.892C77.0175 150.72 75.795 155.589 71.5217 169.587C70.9104 172.024 70.299 174.455 70.299 175.065C70.299 177.502 62.9748 201.237 61.141 204.278C60.5297 206.106 60.5297 206.106 61.141 206.71C61.7522 207.319 62.3636 207.319 62.3636 207.319C63.5862 204.882 69.6935 184.193 71.5217 176.887C72.1329 173.846 72.7442 172.018 73.3555 172.018C73.9668 172.018 73.9667 170.8 72.1328 180.537C70.9103 185.406 68.4708 193.316 66.6369 198.794C64.803 204.272 63.5863 209.141 63.5863 209.751C63.5863 213.401 66.6369 206.1 70.3046 194.535C70.9159 192.103 71.5272 190.275 71.5272 189.666C71.5272 189.666 72.1386 188.447 72.7499 187.234C72.1386 190.275 69.6992 200.013 68.4766 203.06C67.254 204.278 67.2539 206.1 67.2539 206.71C67.2539 208.538 68.4765 207.319 69.6934 204.278L70.916 201.237V205.497C70.3048 207.325 70.3047 209.756 69.6934 210.366C69.0821 211.584 70.3047 212.194 71.5272 211.584C72.1385 210.975 72.1386 210.975 72.7499 210.975C73.3612 211.584 73.361 216.453 72.1384 217.672C71.5271 218.281 70.3047 222.541 68.4766 226.8C67.254 230.451 66.037 234.71 65.4257 235.32C65.4257 235.929 62.3752 237.148 59.93 238.361C55.0454 240.189 48.3267 241.401 47.1099 240.798C46.4986 240.188 45.8875 239.579 45.8875 238.361C45.8875 237.751 45.2761 237.142 44.6648 237.142C44.0535 237.142 44.0534 237.751 45.276 239.579C45.276 240.188 45.2761 240.798 44.6648 240.798C43.4422 240.798 43.4423 240.189 42.831 238.97C42.2197 240.798 42.831 240.798 38.5577 239.579C35.507 238.97 34.2843 237.751 30.6223 234.71C26.349 229.841 22.687 224.363 22.0757 220.713C21.4587 217.678 20.8476 218.891 28.7829 203.675ZM72.0929 198.213C71.9558 199.335 71.5272 200.537 71.5272 200.03C71.5215 199.432 71.5274 198.276 72.0929 198.213ZM58.7015 242.626V244.454C58.7015 245.063 58.7015 245.672 58.7015 245.672C57.4789 245.672 56.8678 242.631 57.4791 242.022C58.0904 241.413 58.7015 242.022 58.7015 242.626ZM56.2565 244.454C56.2565 245.063 55.6453 246.282 55.6453 246.282C55.034 246.282 55.0338 245.063 55.0338 243.85C55.0338 243.241 55.034 242.632 55.6453 242.632C55.651 242.626 56.2565 243.844 56.2565 244.454ZM52.5944 245.063V246.282L51.9832 245.063C51.3719 243.844 51.3719 243.235 51.9832 243.235H52.5944C52.5944 243.235 53.2057 243.844 52.5944 245.063ZM49.5437 245.672C49.5437 246.282 48.3211 245.063 48.3211 243.844C48.3211 242.626 48.9324 242.626 49.5437 243.844C49.5437 244.454 50.155 245.063 49.5437 245.672ZM45.8816 245.672V243.844C45.8816 242.626 45.8818 242.626 46.4931 243.844C47.0987 245.672 46.4929 246.282 45.8816 245.672ZM43.4366 245.672C42.8253 245.672 42.8251 245.063 42.8251 243.844C42.8251 242.626 44.0478 242.626 44.0478 244.454C44.6591 245.063 44.0479 245.672 43.4366 245.672ZM40.9971 243.844C40.9971 244.454 40.386 245.063 40.386 245.063C39.7747 245.063 39.7745 244.454 39.7745 243.844C39.7745 242.626 39.7747 242.626 40.386 242.626C40.386 242.626 40.9971 242.626 40.9971 243.844ZM39.1633 243.235C39.1633 243.844 38.5519 244.454 37.9406 244.454C37.3294 244.454 37.3295 243.844 37.3295 243.235C37.3295 242.016 37.3294 242.016 37.9406 242.016C38.5519 242.022 39.1633 242.022 39.1633 243.235ZM35.5012 243.235C35.5012 244.454 34.2785 243.235 34.2785 241.407C34.2785 240.189 34.2787 240.189 34.89 241.407C35.5013 242.022 36.1125 242.626 35.5012 243.235ZM31.8335 242.626V237.757L32.4447 239.585C33.056 240.804 33.0562 242.016 33.0562 242.016C33.6675 243.235 32.4448 243.235 31.8335 242.626ZM30.6167 239.585C30.6167 242.016 29.3942 242.626 28.7829 240.804V237.763C28.7829 235.935 28.7828 235.331 29.3941 236.544C30.0053 236.544 30.6167 237.757 30.6167 239.585ZM27.5602 237.153C27.5602 238.372 27.5603 240.194 26.949 240.194C26.3377 240.194 26.3376 238.976 26.3376 235.935C26.3433 232.284 26.9546 232.888 27.5602 237.153ZM24.5096 230.456V234.107C24.5096 238.366 23.8981 237.757 23.8981 233.497C23.8981 231.066 23.8983 229.847 24.5096 230.456ZM21.4587 229.847L22.0701 226.806V231.066C22.0701 232.894 22.0701 235.325 22.0701 235.325C21.4588 235.325 20.8474 232.888 21.4587 229.847ZM19.6248 231.066C19.6248 229.847 19.625 228.634 20.2363 228.025V231.066L19.6248 232.284V231.066ZM19.0136 225.587C19.0136 225.587 19.0136 226.806 19.0136 228.025C18.4023 229.243 18.4023 229.853 17.791 228.634C17.791 228.019 18.4023 224.978 19.0136 225.587ZM14.7403 270.626C14.1291 270.017 13.5176 269.408 14.1289 269.408C14.1289 268.798 14.7402 269.408 15.3515 269.408C15.9628 270.626 15.3516 271.236 14.7403 270.626ZM14.1289 254.801C13.5176 246.282 14.1289 242.626 16.5683 236.544L17.791 232.894L19.0136 235.331C23.2869 240.2 28.7829 244.459 33.0562 245.069C34.2787 245.678 37.3295 246.287 40.386 246.897C44.048 248.115 45.8818 248.115 53.2058 248.115C62.975 247.506 63.5861 248.115 61.141 250.547C58.6958 253.588 55.034 255.416 51.372 254.807C48.9325 254.807 48.3211 254.807 48.3211 256.025C48.3211 257.244 48.9325 257.244 51.9832 257.244C54.4226 257.853 57.479 256.635 60.5298 254.203C61.7523 253.594 62.9691 252.984 63.5804 252.984C64.1917 252.984 65.4145 251.766 66.6313 251.156C67.2426 250.547 67.8539 249.938 68.4652 249.938C68.4652 249.938 68.4652 249.938 68.4652 250.547C67.8539 250.547 67.8537 251.766 67.8537 252.375C67.8537 253.594 62.9693 258.463 59.9186 259.681C59.3073 260.291 57.4791 260.9 55.6453 260.9C52.5946 260.9 51.9832 262.118 54.4226 263.941C55.0339 264.55 56.2565 265.769 56.2565 266.378C56.2565 266.378 56.8677 267.597 58.0903 267.597C60.5355 268.815 60.5355 268.815 59.313 269.425C58.7017 269.425 53.817 270.034 48.3211 271.253C33.056 273.69 25.1208 273.081 19.0136 268.821C17.7911 268.212 16.5743 267.602 15.963 267.602C14.7404 267.58 14.7402 263.929 14.1289 254.801ZM48.3211 274.277L47.7099 274.886L47.0987 274.277C47.0987 273.667 47.0987 273.667 47.0987 273.667C47.71 273.667 48.3211 273.667 48.3211 274.277ZM45.8816 274.886L45.2704 275.495C44.6591 275.495 44.6592 274.886 44.6592 274.886C44.6592 274.277 44.6591 274.277 45.2704 274.277C45.2704 274.277 45.8816 274.277 45.8816 274.886ZM43.4366 275.495L42.8251 276.104C42.2138 276.104 42.2139 275.495 42.2139 275.495C42.2139 274.886 42.2138 274.886 42.8251 274.886C42.8251 274.886 43.4366 274.886 43.4366 275.495ZM39.7745 275.495C39.7745 275.495 39.7746 276.104 39.1633 276.104C37.3294 276.104 37.3293 275.495 38.5518 274.886C39.1631 274.886 39.7745 274.886 39.7745 275.495ZM36.7238 275.495C36.7238 275.495 36.1125 276.104 35.5012 276.104C34.2786 276.104 34.2785 275.495 34.2785 275.495C34.2785 274.886 34.2786 274.886 35.5012 274.886C36.1125 274.886 36.7238 275.495 36.7238 275.495ZM23.2869 274.277L22.6757 274.886L22.0643 274.277C22.0643 273.667 22.0643 273.667 22.0643 273.667C22.6756 273.667 23.2869 273.667 23.2869 274.277ZM17.791 271.236C17.791 271.845 17.791 272.454 17.791 272.454C17.791 273.064 16.5683 271.236 16.5683 270.626C16.574 270.017 17.1854 270.017 17.791 271.236ZM36.7238 299.84C32.4505 298.621 28.1773 294.361 23.904 288.883C21.4645 284.624 16.5798 276.105 17.1854 275.495C17.1854 275.495 19.6306 276.105 22.6813 276.714C30.0053 277.933 40.9971 277.933 48.9381 276.714C52.6001 276.105 55.0454 275.495 55.6567 275.495C56.268 274.886 57.4905 274.277 58.7074 274.277C59.9299 273.667 61.7582 273.058 62.3695 272.449C63.592 271.23 64.2031 271.839 63.5918 273.058C62.3693 279.145 58.7074 288.274 54.4341 297.402C52.6002 300.443 50.772 302.881 50.772 302.881C48.9324 302.881 40.9972 301.053 36.7238 299.84ZM60.5353 287.055C61.1466 287.055 62.3695 287.055 62.3695 287.665C62.3695 287.665 61.7581 288.274 61.1468 288.274C60.5355 288.274 60.5353 287.665 60.5353 287.055ZM60.5353 290.711C60.5353 291.321 59.9242 290.102 59.9242 289.493C59.9242 289.493 59.9241 289.493 60.5353 289.493C60.5353 290.102 61.1466 290.711 60.5353 290.711ZM62.3636 282.186C62.9749 282.186 63.5863 282.186 63.5863 282.796C63.5863 283.405 63.5863 284.014 63.5863 284.014C62.3637 284.014 61.7523 282.796 62.3636 282.186ZM59.313 295.58L58.7015 296.189C58.0902 296.189 57.4791 295.58 57.4791 295.58C57.4791 294.971 57.479 294.971 58.0903 294.971C58.7016 294.971 59.313 294.971 59.313 295.58ZM55.6509 303.49C55.0396 304.709 55.0396 304.709 53.817 304.099C53.2057 303.49 53.2057 303.49 53.817 302.881C54.4283 301.662 56.2564 302.271 55.6509 303.49ZM56.8677 299.84C56.8677 300.449 56.8679 300.449 55.6453 300.449C55.6453 299.84 56.2564 299.84 56.8677 299.23V299.84ZM81.9021 299.84L80.6794 302.271L76.4061 303.49C70.299 305.318 57.4791 305.922 57.4791 304.709C57.4791 304.709 58.7017 301.058 59.9186 297.408C65.4145 285.233 67.8539 276.714 68.4652 269.413C68.4652 267.585 68.4651 265.763 69.0763 265.763C69.0763 265.763 70.2989 265.763 71.5158 266.372C72.1271 267.591 73.9551 267.591 74.5664 267.591C75.789 268.2 78.8398 272.46 80.0624 277.329C81.902 283.405 82.5134 295.58 81.9021 299.84ZM80.0738 271.236C80.0738 270.626 80.0738 270.626 80.0738 270.626C80.6851 270.626 81.2965 270.626 81.2965 271.236L80.685 271.845L80.0738 271.236ZM83.7359 300.449C83.7359 299.857 83.7415 298.695 84.3014 298.632C84.1642 299.754 83.7359 300.956 83.7359 300.449ZM84.9583 295.58C84.347 295.58 84.3471 294.971 84.3471 294.361C84.3471 293.752 84.347 293.752 84.9583 293.752C84.9583 293.752 85.5698 293.752 85.5698 294.361C85.564 294.971 84.9583 295.58 84.9583 295.58ZM84.9583 291.924C84.347 291.924 84.3471 291.315 84.3471 291.315C84.3471 290.706 84.347 290.706 84.9583 290.706C84.9583 290.706 85.5698 290.706 85.5698 291.315L84.9583 291.924ZM84.3471 286.446V285.837C84.3471 285.227 84.9583 285.227 84.9583 285.227C84.9583 285.227 85.5698 285.227 85.5698 285.837C85.564 285.842 84.9584 286.446 84.3471 286.446ZM106.325 285.842C103.886 290.102 98.3896 294.361 91.0599 298.012C86.7865 300.449 85.5641 300.449 86.1754 299.23C86.1754 298.621 86.7866 294.971 86.7866 290.711C87.3978 282.192 86.1752 277.323 83.1245 270.017C80.685 265.148 79.4626 264.539 78.24 266.367C77.0174 268.195 77.0174 266.367 78.24 264.539C78.8513 263.32 78.8512 263.32 78.8512 263.32C78.8512 263.929 79.4625 264.539 80.0738 264.539C80.6851 264.539 81.2965 263.929 81.2965 262.711C81.2965 262.101 82.519 260.279 85.5698 256.623C91.0656 251.754 91.6768 251.754 99.0008 255.405C105.719 258.445 109.381 262.705 110.604 268.793C111.215 271.834 109.993 271.224 109.381 268.183C109.381 266.965 108.77 265.746 108.159 265.746C108.159 265.137 107.548 265.746 108.159 266.965C108.159 267.574 108.159 268.183 107.547 268.183V267.574C107.547 266.965 106.936 265.746 105.714 263.924C105.102 262.096 104.491 261.486 103.88 261.486C103.88 262.096 103.88 263.314 105.102 265.137C106.936 268.787 108.764 277.915 107.542 278.525H106.931C105.097 268.787 103.268 263.918 102.046 265.137C102.046 265.137 102.657 266.965 103.269 269.396C103.88 271.224 105.102 274.265 105.102 276.093V278.53L104.491 275.489C103.88 272.449 102.657 270.621 101.44 270.621C100.829 270.621 100.829 270.011 102.663 274.88C103.886 279.14 105.102 284.009 104.497 282.79C103.885 282.181 103.274 280.962 103.274 279.749C102.663 277.921 102.052 277.312 101.44 277.312C101.44 277.312 101.44 277.312 101.44 278.53C101.44 279.14 102.052 280.968 102.663 282.79C103.274 286.44 105.102 287.05 105.714 284.009C106.325 283.399 106.936 281.571 107.547 280.968C109.381 279.749 111.21 274.88 111.21 273.058C111.21 272.449 111.209 272.449 111.821 272.449C113.043 272.449 109.987 280.973 106.325 285.842Z" fill="#009E45"/>
<path d="M55.6508 293.752C55.6508 293.143 51.9888 289.493 51.3775 289.493C50.7662 289.493 50.7661 290.102 51.9887 291.321C52.6 291.93 53.8226 293.149 53.8226 293.752C53.8226 293.752 53.8227 294.362 54.434 294.362C55.0453 294.362 55.6508 293.752 55.6508 293.752Z" fill="#009E45"/>
<path d="M51.3778 293.143C50.1552 293.143 50.1552 293.143 51.3778 294.971C52.6003 296.189 53.2117 295.58 52.6004 294.362C52.5947 293.143 51.9833 293.143 51.3778 293.143Z" fill="#009E45"/>
<path d="M50.1549 296.793C50.1549 296.793 50.7663 297.402 51.3776 297.402C51.9889 297.402 52.6 296.793 51.9888 296.184C50.7662 294.971 49.5436 295.58 50.1549 296.793Z" fill="#009E45"/>
<path d="M68.4708 301.662C67.2482 301.662 67.2483 302.271 67.8596 302.881C68.4709 303.49 69.6934 303.49 69.6934 302.271C69.6934 301.662 69.082 301.662 68.4708 301.662Z" fill="#009E45"/>
<path d="M72.7441 297.402V298.012C73.3554 299.23 72.133 301.053 71.5218 300.449C70.9105 299.845 69.6878 300.449 70.2991 301.058C70.2991 301.668 75.1836 301.668 75.1836 301.668C75.1836 301.668 75.1836 301.058 75.1836 300.449C74.5723 299.84 73.9609 298.621 73.9609 298.012C73.9666 297.402 73.3554 297.402 72.7441 297.402Z" fill="#009E45"/>
<path d="M54.4283 291.315L55.6509 289.487L56.8736 288.268L55.6509 285.831C54.4284 284.003 53.8171 283.394 53.8171 283.394C52.5945 283.394 52.5944 284.003 54.4283 286.435C55.0396 287.044 55.651 288.263 55.0397 288.263C55.0397 288.263 54.4284 288.263 53.8171 287.044C51.9832 284.607 51.3778 285.825 53.2059 288.872L54.4283 291.315Z" fill="#009E45"/>
<path d="M74.5777 294.971C73.9664 294.971 73.9665 296.189 75.8004 299.23C77.023 301.662 78.2398 302.881 78.2398 301.058C78.2398 299.84 75.189 294.971 74.5777 294.971Z" fill="#009E45"/>
<path d="M64.1975 302.881C63.5862 303.49 64.1976 304.099 65.4201 304.099C66.6427 304.099 67.254 303.49 67.254 302.881C67.2483 301.662 64.1975 302.271 64.1975 302.881Z" fill="#009E45"/>
<path d="M51.9833 269.408C52.5946 268.189 49.5437 262.107 48.3212 262.107C48.3212 262.716 50.1552 267.585 51.3721 268.804C51.9834 269.408 51.9833 270.017 51.9833 269.408Z" fill="#009E45"/>
<path d="M53.8171 268.189C54.4284 269.408 55.6511 269.408 55.0398 268.798C51.9891 261.498 50.1552 259.06 50.7665 261.498C50.7665 262.101 52.5945 266.367 53.8171 268.189Z" fill="#009E45"/>
<path d="M48.9327 269.408C49.544 269.408 48.9326 266.97 48.3213 265.757C46.4874 263.32 45.882 264.539 47.0989 266.976C48.3215 268.189 48.9327 269.408 48.9327 269.408Z" fill="#009E45"/>
<path d="M46.4931 270.017C47.1044 270.017 47.1042 269.408 45.8816 268.189C45.2703 266.97 44.6591 266.361 44.0478 266.361C43.4365 266.97 44.0479 267.58 45.2704 268.793C45.2704 269.408 45.8818 270.017 46.4931 270.017Z" fill="#009E45"/>
<path d="M42.8252 270.017C44.6591 270.017 44.6591 270.017 44.0478 268.798C43.4366 267.58 40.9972 268.189 40.9972 269.408C40.9972 270.017 41.6026 270.017 42.8252 270.017Z" fill="#009E45"/>
<path d="M59.9242 228.628C59.3129 229.238 59.9242 229.847 61.7581 233.497C62.3694 235.325 62.9806 235.929 63.5919 235.929C63.5919 235.929 63.5919 235.32 63.5919 234.71C62.9806 234.71 62.3694 232.882 61.7581 231.06C61.1468 229.847 60.5355 228.628 59.9242 228.628Z" fill="#009E45"/>
<path d="M66.0313 178.726C66.6426 178.726 66.6426 177.508 66.0313 176.898C65.42 176.898 65.4201 177.508 65.4201 178.117C64.8088 178.726 65.42 179.336 66.0313 178.726Z" fill="#009E45"/>
<path d="M66.0314 226.197C66.0314 225.587 67.254 223.156 67.8653 222.547C69.0879 221.328 69.0879 219.506 67.8653 220.109C67.8653 220.109 67.2541 220.719 67.2541 221.328C67.2541 221.937 67.2542 222.547 66.6429 222.547C66.0316 222.547 66.0314 223.156 66.0314 223.765C66.0314 224.375 65.4203 224.984 64.8091 224.984C64.8091 224.984 64.1978 225.593 64.8091 226.203C65.4203 227.415 66.637 227.415 66.0314 226.197Z" fill="#009E45"/>
<path d="M58.7017 234.716C59.313 235.935 60.5355 237.153 60.5355 237.153C61.7581 237.763 61.7582 237.153 59.9243 234.112C58.0905 230.456 57.4791 231.066 58.7017 234.716Z" fill="#009E45"/>
<path d="M64.1975 232.284C63.5862 231.066 64.1976 231.066 64.8089 231.066C66.0315 231.066 66.0315 230.456 64.8089 228.025C64.1976 227.416 62.9748 226.806 62.9748 226.806C62.9748 227.416 62.975 228.025 63.5863 228.634C63.5863 228.634 63.5863 229.244 63.5863 229.853C63.5863 230.462 63.5861 229.853 62.9748 228.634C61.1409 226.197 61.1411 228.025 62.3636 231.066C63.5862 234.107 64.8088 234.716 64.1975 232.284Z" fill="#009E45"/>
<path d="M56.2565 232.284C55.6452 231.675 55.6451 234.112 56.8676 235.935C56.8676 237.153 57.479 238.372 58.0903 238.372C58.0903 238.372 58.0903 237.763 58.0903 237.153C58.0903 236.544 57.4791 235.325 57.4791 234.112C56.8678 233.497 56.8677 232.284 56.2565 232.284Z" fill="#009E45"/>
<path d="M70.3047 219.5L70.9161 218.891V217.063C71.5274 216.453 70.9159 216.453 70.3047 216.453C69.6934 216.453 69.6935 216.453 69.6935 217.672C69.6935 218.281 69.6934 219.5 70.3047 219.5Z" fill="#009E45"/>
<path d="M53.817 233.497C53.2057 233.497 53.2056 234.107 54.4282 236.538C54.4282 237.757 55.0395 238.366 55.6508 238.366C56.2564 237.757 55.0396 233.497 53.817 233.497Z" fill="#009E45"/>
<path d="M33.6675 271.236C33.6675 270.017 32.445 269.408 31.8337 270.017V270.626C32.445 271.839 33.6675 271.839 33.6675 271.236Z" fill="#009E45"/>
<path d="M39.7747 269.408C39.1634 268.798 39.1633 268.798 38.552 268.798C38.552 269.408 38.5522 270.017 39.1635 270.626C39.7748 271.236 40.386 270.626 39.7747 269.408Z" fill="#009E45"/>
<path d="M36.1125 270.626C37.335 270.017 37.335 269.408 36.1125 269.408C34.8899 269.408 34.8901 269.408 34.8901 270.017C34.8901 271.236 34.8899 271.236 36.1125 270.626Z" fill="#009E45"/>
<path d="M65.4203 180.549C65.4203 179.33 65.4204 179.33 64.8091 180.549C64.1978 181.158 64.1976 181.767 64.1976 182.377C64.8089 182.986 66.0315 182.377 65.4203 180.549Z" fill="#009E45"/>
<path d="M61.7525 240.804C61.7525 240.804 61.7525 240.804 61.7525 241.413C61.7525 242.022 61.7525 242.632 61.7525 242.022C61.7525 242.022 61.7525 241.413 61.7525 240.804Z" fill="#009E45"/>
<path d="M95.9446 250.541C95.9446 250.541 95.3333 250.541 94.722 250.541C94.722 250.541 94.7219 250.541 95.3332 250.541C95.9444 250.541 96.5559 250.541 95.9446 250.541Z" fill="#009E45"/>
<path d="M19.6249 272.449C19.6249 272.449 19.6249 272.449 19.6249 273.058C19.6249 273.667 19.6249 274.277 19.6249 273.667C19.6249 273.667 19.6249 273.058 19.6249 272.449Z" fill="#009E45"/>
<path d="M28.783 274.886C28.783 274.886 28.1717 274.886 27.5604 274.886C27.5604 274.886 27.5603 274.886 28.1716 274.886C28.7829 274.886 29.3943 274.886 28.783 274.886Z" fill="#009E45"/>
<path d="M65.4201 273.667C65.4201 273.667 65.4201 273.667 65.4201 274.886C65.4201 275.495 65.4201 275.495 65.4201 275.495C65.4201 274.886 65.4201 274.277 65.4201 273.667Z" fill="#009E45"/>
<path d="M82.5133 277.317C82.5133 277.317 82.5133 277.317 82.5133 277.927C82.5133 278.536 82.5133 279.145 82.5133 278.536C82.5133 278.536 82.5133 277.927 82.5133 277.317Z" fill="#009E45"/>
<path d="M59.9243 292.534C59.9243 292.534 59.3129 292.534 58.7016 292.534C58.7016 292.534 58.7018 292.534 59.3131 292.534C59.9243 292.534 60.5355 292.534 59.9243 292.534Z" fill="#009E45"/>
<path d="M55.6829 67.8169C55.9025 68.0367 56.3414 68.0371 56.3414 68.0371C56.5607 67.8176 56.5603 67.3783 56.3407 67.1584C56.1207 66.4992 56.1206 66.4992 55.9014 66.7187C55.4629 67.1577 55.2436 67.3772 55.6829 67.8169Z" fill="#009E45"/>
<path d="M32.2209 57.4831C32.0013 57.2633 31.7821 57.4828 31.3467 59.2377C30.6921 61.2121 30.91 61.8692 31.5654 60.7735C32.2207 59.6777 32.6602 57.9228 32.2209 57.4831Z" fill="#009E45"/>
<path d="M31.5662 61.6522C31.3473 62.311 31.7865 62.7507 32.0058 62.5312C32.225 62.3118 32.6621 60.1196 32.6621 60.1196C32.4425 59.8997 31.7851 60.9934 31.5662 61.6522Z" fill="#009E45"/>
<path d="M73.6575 71.7796C74.7517 70.6842 75.8476 69.1475 76.5034 68.4911C77.8165 66.737 78.91 64.763 79.3498 63.4474C79.5687 62.7886 80.4433 61.4734 80.8815 60.5951C82.6327 57.9627 84.38 50.5058 84.1574 46.7754C83.9352 43.4844 84.1544 43.2648 82.6195 42.1672C81.5234 41.0701 81.0842 40.6304 79.548 40.4095C78.233 39.9711 76.916 39.5307 76.0403 39.5279L72.7519 38.4268C72.5327 38.6463 71.2178 38.2079 70.1224 37.9853C64.4217 36.2252 62.0114 35.5642 58.7217 35.3438C57.4051 35.3427 54.9951 35.121 53.4609 34.9021C51.9247 34.6812 49.9537 34.4599 49.076 34.4592C47.5418 34.2403 46.2272 34.2371 44.6913 34.4555C43.8135 34.4548 42.0621 34.4533 40.5262 34.6717C36.1416 34.668 31.979 35.3215 29.1313 36.4175C25.1887 37.7301 25.4058 37.5126 21.4654 41.4571C17.7418 44.7449 17.5226 44.9644 16.4294 47.3777C15.7745 48.9128 14.8978 50.23 14.8981 50.6693C14.6792 51.3281 13.1487 55.4943 13.1487 55.4943C12.7102 55.9333 11.1837 64.928 11.4044 66.4617C11.407 69.5329 12.7269 73.4839 14.2622 75.0208C14.9211 75.6803 15.3586 76.5573 15.7978 76.997C15.7982 77.4363 16.4555 78.5332 16.8947 78.9729C17.334 79.4126 17.9907 80.07 17.9911 80.5094C18.2111 81.1685 23.2559 85.7796 25.6693 87.7566C29.6173 90.3918 31.1502 91.4914 34.6598 92.3709C39.2628 93.471 43.2082 93.0349 48.9036 90.8471C50.8759 90.1919 53.2847 89.0956 54.1621 88.657C56.5713 88 58.5432 86.9053 59.8591 86.0278C60.2976 85.5888 61.3923 84.9328 62.4889 84.2748C63.3659 83.3968 64.2412 82.9602 64.4605 82.7408C65.5575 82.522 71.907 75.2867 72.3427 73.9711C72.3448 73.9732 73.0001 72.8774 73.6575 71.7796ZM69.059 75.9474C68.6205 76.3864 67.9616 75.7268 68.4001 75.2879C68.6194 75.0684 68.6193 75.0683 69.0586 75.508C69.2782 75.7279 69.2783 75.7279 69.059 75.9474ZM72.1234 71.5608C72.1234 71.5608 72.343 71.7806 72.1237 72.0001L71.6848 71.9998C71.4652 71.7799 71.6844 71.5604 71.6844 71.5604C71.9037 71.3409 71.9037 71.341 72.1234 71.5608ZM71.2487 72.876C71.468 72.6565 71.4684 73.0958 70.591 73.5344C70.1525 73.9734 69.9332 74.1928 69.9356 74.6301C69.9356 74.6301 69.9356 74.6301 69.4967 74.6298C69.2771 74.4099 69.2772 74.4099 69.9349 73.7515C70.3734 73.3125 70.5923 72.6537 70.5923 72.6537C70.8095 72.4362 71.0291 72.6561 71.2487 72.876ZM74.7516 68.0504L74.3127 68.05C74.0931 67.8301 74.3124 67.6106 74.3124 67.6106C74.5316 67.3912 74.5316 67.3911 74.7512 67.611C74.7491 67.613 74.9688 67.8329 74.7516 68.0504ZM75.8451 66.0763C75.8451 66.0763 76.0647 66.2962 75.8454 66.5156L75.4066 66.5153C75.187 66.2954 75.4062 66.076 75.4062 66.076C75.6275 65.8586 75.6275 65.8585 75.8451 66.0763ZM81.7551 55.7714C81.7555 56.2107 81.317 56.6497 81.317 56.6497C81.317 56.6497 81.3166 56.2104 81.3163 55.771C81.3159 55.3317 81.7544 54.8928 81.7544 54.8928C81.7544 54.8928 81.7547 55.332 81.7551 55.7714ZM20.8434 82.4867C20.6238 82.2669 20.843 82.0473 20.843 82.0473C21.0622 81.8279 21.0623 81.8279 21.2819 82.0478C21.2819 82.0478 21.5015 82.2676 21.2823 82.4871L20.8434 82.4867ZM24.3545 85.1235C24.1349 84.9037 24.3542 84.6842 24.3542 84.6842C24.5735 84.4648 24.5734 84.4647 24.793 84.6846C25.0127 84.9044 25.2323 85.1243 25.0131 85.3438C25.011 85.3417 24.5741 85.3434 24.3545 85.1235ZM25.6699 86.0013C25.4503 85.7815 25.6695 85.5619 25.8887 85.3424C26.108 85.1229 26.108 85.123 26.108 85.123C26.3276 85.3428 26.5473 85.5627 26.328 85.7822C26.1088 86.0016 25.8895 86.2212 25.6699 86.0013ZM28.0807 84.9071C26.5462 84.2488 25.4485 83.5889 25.2288 83.3691C25.0092 83.1492 24.7896 82.9293 24.5703 83.1488C24.3507 82.929 24.3506 82.9289 24.3506 82.9289C24.3506 82.9289 24.131 82.7091 23.4725 82.4889C23.0336 82.4885 15.5751 75.4613 15.5748 75.0219C15.5748 75.0219 15.3547 74.3627 14.6979 73.7052C13.6015 72.1687 12.5019 69.3162 12.5018 66.6823C12.5023 64.927 13.1513 58.5655 14.0268 55.9344C14.6831 53.5227 15.5573 51.7682 16.214 49.7917C16.8714 48.694 17.5268 47.5982 17.3071 47.3784C17.3068 46.9391 18.8395 45.4048 21.2493 42.9925C25.6282 38.6091 25.6282 38.6091 30.0118 37.2947C33.0791 36.4187 35.2711 35.9832 40.7486 35.7681C46.8843 35.3339 46.0086 35.3352 55.2155 36.2195C59.8198 36.443 63.5446 37.1031 65.2984 37.546C66.6134 37.9843 67.9304 38.4248 68.3673 38.4272C68.8061 38.4276 70.7796 39.0862 72.751 39.7468C74.5048 40.1856 77.1347 41.0665 78.2321 41.287C79.7663 41.5059 80.6423 41.948 81.5208 42.8274L83.0558 43.925L83.0583 46.9962C82.8405 48.9689 82.6224 50.5064 82.1839 50.9453C81.7454 51.3843 81.5289 52.4804 81.31 53.1392C81.0911 53.798 80.4358 54.8937 79.9976 55.772C79.5595 56.6503 78.4659 58.6243 77.8089 60.1573C76.0584 63.6684 72.5555 68.4899 69.2715 72.6567C64.8929 77.4795 60.0727 81.4253 56.1304 83.1772C55.0338 83.8353 53.5003 84.491 53.0635 84.4926C52.8438 84.2728 51.9665 84.7115 50.6523 85.1476C49.7749 85.5862 48.2431 85.8046 46.9268 86.2428C45.8298 86.4616 44.7349 86.6783 44.0788 86.8994C41.0115 87.7755 33.1199 87.769 31.8067 86.8892C31.1482 86.6649 29.3961 85.7848 28.0807 84.9071ZM28.519 86.6627C28.7383 86.4432 28.7382 86.4431 28.9578 86.663C28.9578 86.663 29.1775 86.8829 28.9583 87.1024L28.5193 87.1019C28.2997 86.8821 28.519 86.6627 28.519 86.6627ZM27.8641 88.1977L27.8636 87.7583C28.0829 87.5389 28.083 87.5389 28.3026 87.7588C28.5222 87.9786 28.5221 87.9786 28.3029 88.1981L27.8641 88.1977ZM30.054 87.7603L29.615 87.7598L29.8343 87.5403C30.0535 87.3209 30.0536 87.3209 30.2732 87.5408C30.2732 87.5408 30.2732 87.5408 30.054 87.7603ZM30.9324 88.6396C30.7128 88.4198 30.7124 87.9804 30.7124 87.9804C30.9317 87.7609 30.9317 87.761 31.1513 87.9808C31.5906 88.4205 31.8102 88.6404 31.5909 88.8598C31.5909 88.8598 31.152 88.8595 30.9324 88.6396ZM32.0281 89.2975L32.0278 88.8582C32.247 88.6387 32.247 88.6387 32.247 88.6387C32.4667 88.8585 32.6862 89.0783 32.4669 89.2978L32.0281 89.2975ZM33.3451 89.7378C32.9058 89.2981 33.1248 88.6394 33.5637 88.6398C34.0025 88.6401 34.2225 89.2993 33.784 89.7383L33.3451 89.7378ZM34.6593 89.3017C34.8782 88.6429 34.8782 88.6429 35.3171 88.6432C35.5367 88.8631 35.7567 89.5223 35.101 90.1787C34.8776 90.3981 34.4384 89.9584 34.6593 89.3017ZM36.4139 90.6191C35.7554 90.3989 36.1948 88.644 36.8509 88.4269C37.2898 88.4273 37.2901 88.8666 37.0712 89.5254C37.2912 90.1846 37.072 90.4041 36.8528 90.6236C36.8528 90.6195 36.6335 90.8389 36.4139 90.6191ZM40.5776 91.2795C40.358 91.0597 40.5769 90.4009 40.7962 90.1815C40.7958 89.7421 40.7954 89.3028 40.7954 89.3028C40.3562 88.8631 40.1369 89.0825 39.9184 90.1807C39.9188 90.62 39.4802 91.059 39.263 91.2764C39.263 91.2764 39.0434 91.0565 39.0427 90.1779C39.2615 89.5191 39.2611 89.0797 39.2611 89.0797C38.8219 88.64 38.6027 88.8595 38.6034 89.7382C38.6038 90.1775 38.6042 90.6168 38.3849 90.8363C37.9464 91.2753 37.5072 90.8356 37.945 89.518C38.1635 88.4199 38.1634 88.4198 39.478 88.423C41.4487 88.205 41.6683 88.4248 41.4518 89.5209C41.4522 89.9602 41.2334 90.6191 41.0141 90.8385C41.2361 91.4998 40.7972 91.4994 40.5776 91.2795ZM42.1114 91.0632C41.8918 90.8433 42.5478 87.9924 42.7674 88.2122C43.2062 88.2126 43.2081 90.4052 42.5503 91.0636C42.3311 91.2831 42.1114 91.0632 42.1114 91.0632ZM43.6462 89.5268C44.5201 87.3329 44.5201 87.333 44.0851 89.5272C43.8662 90.1861 43.6493 90.8427 43.4301 91.0622C43.428 91.0643 43.4277 90.6249 43.6462 89.5268ZM44.5234 91.2828C44.3038 91.063 45.3982 87.773 45.6174 87.5535C46.0563 87.5539 45.6193 89.7461 45.1812 90.6244C44.9619 90.8439 44.5234 91.2828 44.5234 91.2828ZM46.0564 90.1878C46.0564 90.1878 46.4947 89.3096 46.7115 88.6528C46.9297 87.1154 47.3688 87.555 47.1507 89.0925C47.1514 89.9711 46.7129 90.4101 46.4957 90.6276C45.8376 90.8467 45.6179 90.6268 46.0564 90.1878ZM47.8085 88.434C48.0273 87.7752 48.2442 87.1185 48.4635 86.899C49.1216 86.6799 49.5609 87.1196 49.1224 87.5586C49.1224 87.5586 48.6838 87.9975 48.9038 88.6566C48.6849 89.3155 48.6853 89.7548 48.466 89.9743C48.0296 90.4071 47.5923 89.9694 47.8085 88.434ZM49.7808 87.7787C49.9993 86.6806 50.4358 86.2437 50.6554 86.4636C51.0943 86.4639 50.4376 88.4363 49.7799 89.0947C49.3438 89.971 49.1238 89.3117 49.7808 87.7787ZM51.0962 88.6565C51.0962 88.6565 51.0958 88.2172 51.3143 87.119C51.9693 85.584 51.9692 85.5839 52.1889 85.8038C52.4085 86.0236 52.1896 86.6824 51.9707 87.3412C51.7542 88.4373 51.3158 88.8764 51.0962 88.6565ZM52.6316 87.9987C52.6316 87.9987 52.8506 87.34 53.0695 86.6812C53.288 85.583 53.7244 85.1461 53.944 85.3659C54.3829 85.3663 54.3819 86.6822 53.507 87.5581C53.0685 88.0011 52.6316 87.9987 52.6316 87.9987ZM55.9163 84.7106C56.3548 84.2716 56.1357 84.4912 55.9168 85.15C55.6979 85.8088 55.2593 86.2477 55.0421 86.4652C54.6036 86.9041 55.0389 85.1492 55.9163 84.7106ZM56.7928 85.5879C56.3543 86.0269 56.3543 86.0269 56.7925 85.1486C56.7921 84.7093 57.0109 84.0505 57.0109 84.0505C57.2302 83.831 57.4495 83.6115 57.4495 83.6115C57.8883 83.6119 58.1079 83.8317 57.889 84.4905C57.6681 85.1514 57.2316 85.5883 56.7928 85.5879ZM58.7648 84.4934C58.7648 84.4934 58.5451 84.2735 58.764 83.6147C58.7633 82.736 59.2022 82.7364 58.9837 83.8346C58.9841 84.2739 58.9844 84.7132 58.7648 84.4934ZM59.8587 82.9587C59.8579 82.08 60.0772 81.8605 60.2975 82.959C60.5171 83.1789 60.5175 83.6182 60.2983 83.8377C60.079 84.0572 59.6398 83.6175 59.8587 82.9587ZM61.6118 82.5229C61.3925 82.7424 61.3925 82.7423 61.1725 82.0832C60.9525 81.424 61.6082 80.7676 61.8279 80.9875C62.0475 81.2073 62.2672 81.4272 62.0479 81.6467C62.0503 82.0839 62.0506 82.5233 61.6118 82.5229ZM62.7077 80.9862C62.4881 80.7663 62.9265 80.3273 63.1458 80.1078C63.365 79.8883 63.365 79.8883 63.365 79.8883C63.1458 80.1078 63.1462 80.5472 63.3658 80.767C63.5854 80.9869 63.8051 81.2068 63.8051 81.2068C63.5841 81.8635 63.147 81.4259 62.7077 80.9862ZM64.0215 80.1106C63.8015 79.4515 64.24 79.0124 64.8989 79.672C65.1185 79.8918 65.1189 80.3312 64.8996 80.5507C64.4591 80.9876 64.2415 80.7698 64.0215 80.1106ZM66.211 79.2338C65.9917 79.4532 65.5525 79.0135 65.3329 78.7937C64.8936 78.354 64.8937 78.3541 65.7718 78.7941C66.4303 79.0144 66.6499 79.2341 66.211 79.2338ZM65.7732 77.9176L65.9924 77.6981C66.2117 77.4786 66.4313 77.6984 66.4313 77.6984C66.4313 77.6984 66.6509 77.9182 66.4316 78.1377C66.4316 78.1377 65.9928 78.1374 65.7732 77.9176ZM67.7455 77.2622L67.5258 77.0423C67.0869 77.042 67.087 77.042 66.8674 76.8222C66.867 76.3829 67.0862 76.1633 67.9643 76.6034C68.4036 77.0431 68.6232 77.2629 68.4039 77.4824C68.1847 77.7019 67.9631 77.48 67.7455 77.2622Z" fill="#009E45"/>
<path d="M34.8542 62.3139C34.415 61.8743 34.1957 62.0937 33.7603 63.8486C33.5418 64.9467 33.3249 65.6035 33.5446 65.8233L33.7638 65.6038C33.9831 65.3844 34.202 64.7256 34.6381 63.8494C34.857 63.1906 34.8542 62.3139 34.8542 62.3139Z" fill="#009E45"/>
<path d="M33.1021 61.4338C32.8824 61.2139 32.4439 61.6529 32.4471 62.9689C32.4478 63.8475 32.4482 64.2869 32.4482 64.2869C33.1022 64.0677 33.5413 61.8735 33.1021 61.4338Z" fill="#009E45"/>
<path d="M52.6168 72.6408C56.9973 70.0106 58.3124 68.2584 59.624 64.7469C60.7188 61.8963 60.7182 61.0177 60.2764 57.5068C59.8349 54.4352 58.7377 52.02 56.3239 49.6037C54.569 47.8469 53.9105 47.6268 51.7174 46.7483C48.2094 45.4274 45.5775 44.5486 44.4822 44.3301C42.7287 44.3266 40.5372 45.2055 37.6898 46.7366C33.7459 48.9259 31.775 51.3385 30.463 54.4106C28.4935 58.5764 28.9349 61.648 31.5678 66.0394C32.6649 68.4545 35.516 71.3085 37.7094 72.6263C38.3682 73.2858 40.1225 74.1639 41.6546 74.3849C45.6056 75.7062 47.5783 75.4902 52.6168 72.6408ZM47.3585 72.6363C46.9196 72.636 46.7 72.4161 47.357 70.8831C47.5755 69.785 47.792 68.6889 47.7937 68.2517C48.0119 66.7142 47.3541 67.3726 46.9167 69.1296C46.2608 71.9806 46.0422 73.0787 45.3858 72.8564C45.1665 73.0759 44.9469 72.8561 45.1662 72.6366C45.3854 72.4171 45.385 71.9778 45.3847 71.5384C45.3843 71.0991 45.6029 70.001 45.8214 68.907C46.0395 67.3695 46.2584 66.7148 45.822 67.1517C45.6027 67.3712 44.2914 71.3179 44.5118 72.4164C44.2925 72.6359 44.2929 73.0752 44.0733 72.8554C44.0733 72.8554 43.6344 72.855 43.4148 72.6351C42.3174 72.4145 42.319 71.9773 43.1922 68.9047C43.4107 67.8066 43.6276 67.1498 43.41 66.932C43.4096 66.4927 42.7547 68.0278 42.3156 70.222C41.8799 71.5376 41.6609 72.1964 41.4413 71.9765C40.7831 72.1956 41.0034 70.6602 41.8769 68.027C42.3147 66.7094 42.5312 65.6134 42.3136 65.3956C42.0936 64.7364 41.439 66.7107 40.7827 69.1224C40.346 71.7539 40.1268 71.9734 38.8114 71.0957C38.1526 70.4361 38.3718 70.2167 39.0281 67.805C39.6831 66.27 39.6841 64.954 39.6841 64.954C39.4641 64.2949 39.0256 64.7338 39.0263 65.6125C38.8078 66.7106 37.7154 69.9985 37.4962 70.218C37.0573 70.2176 36.6176 69.3385 36.6193 68.9013C36.6189 68.4619 37.0547 67.1464 37.4945 65.8308C37.9302 64.5153 38.1488 63.4172 38.1488 63.4172C37.7096 62.9775 37.7096 62.9775 36.8364 66.05C35.9609 68.6811 35.9608 68.6811 35.5236 68.2434C35.0843 67.8037 35.0844 67.8038 35.3037 67.5843C35.0841 67.3644 35.3025 66.2662 35.7403 64.9527C36.3949 62.9783 36.6158 62.3216 35.9581 62.98C35.7388 63.1995 34.8633 65.8307 34.6468 66.9268C34.8668 67.5859 34.6472 67.3661 33.3315 66.0491C32.0159 64.7321 31.5766 64.2923 31.1383 62.5367C28.9416 57.2691 31.568 51.5661 37.2623 48.0603C39.8924 46.7466 43.6154 45.2141 44.0546 45.6538C44.0546 45.6538 43.8354 45.8733 43.1773 46.0925C41.4242 46.5283 42.0827 46.7485 44.0554 46.5325C45.1524 46.3138 46.2457 46.5344 46.4653 46.7542C46.6849 46.9741 47.1237 46.9744 47.343 46.7549C47.5622 46.5354 48.4401 46.5362 49.7529 46.9766C50.8486 47.6345 52.1656 48.0749 52.6025 48.0774C53.6998 48.2979 56.1112 50.2728 56.9905 52.0309C58.3065 53.7872 58.9661 55.3254 59.4075 58.397C59.8462 60.592 59.63 62.1274 58.7541 64.3192C58.3187 66.0741 56.3462 68.924 55.6897 68.7058C55.6897 68.7058 55.4705 68.9253 55.032 69.3642C54.5935 69.8032 53.9346 69.1437 54.1552 68.0476C54.1548 67.6082 54.1544 67.1689 53.9352 67.3884C53.9352 67.3884 53.716 67.6079 53.7164 68.0473C53.7167 68.4866 53.4979 69.1454 53.4979 69.1454C53.2786 69.3649 53.0593 69.5844 53.2789 69.8042C53.2789 69.8042 53.4985 70.024 53.2793 70.2435C52.8408 70.6825 52.6211 70.4626 52.8413 68.9272C52.8419 67.1719 51.9642 67.1713 51.9636 68.9265C51.7455 70.464 51.0902 71.5597 50.8705 71.3399C50.6509 71.12 50.6502 70.2413 50.8711 69.5846C51.3065 67.8297 51.3081 67.3923 50.8692 67.392C50.65 67.6115 50.2139 68.4877 50.2146 69.3664C49.9985 70.9018 49.7775 71.5585 49.5583 71.778C48.9002 71.9971 49.1195 71.7777 49.3384 71.1189C49.7761 69.8013 49.7747 68.0481 49.5551 67.8282C49.3354 67.6084 49.1166 68.2672 48.8988 70.2399C48.2322 72.6372 48.0149 72.8545 47.3585 72.6363Z" fill="#009E45"/>
<path d="M472.738 67.9999C472.738 67.9999 472.328 68.7051 472.476 69.2605C472.066 69.9657 472.774 70.3711 473.184 69.6659C473.184 69.6659 473.595 68.9606 473.446 68.4053C473.856 67.7001 473.148 67.2947 472.738 67.9999Z" fill="#009E45"/>
<path d="M480.67 64.0935C481.378 64.499 482.348 63.6439 482.05 62.5332C482.05 62.5332 481.491 62.6831 480.932 62.833C479.813 63.1328 479.962 63.6881 480.67 64.0935Z" fill="#009E45"/>
<path d="M495.617 97.5413C496.814 93.0596 497.481 91.0952 496.255 93.2095C495.024 95.3252 493.569 101.061 493.718 101.616C494.01 102.728 494.01 102.728 495.617 97.5413Z" fill="#009E45"/>
<path d="M490.498 65.0252C490.385 66.8411 491.503 66.5413 492.324 65.1309C492.735 64.4257 492.735 64.4256 491.878 63.4648C490.611 63.2092 490.611 63.2093 490.498 65.0252Z" fill="#009E45"/>
<path d="M491.251 49.9595C491.81 49.8096 492.37 49.6597 492.37 49.6597C492.072 48.549 490.246 48.4433 489.692 48.5918C488.014 49.0414 488.608 51.2576 490.583 51.9186C491.85 52.1742 492.814 51.3205 490.845 50.6581C490.133 50.2592 490.133 50.2592 491.251 49.9595Z" fill="#009E45"/>
<path d="M489.239 55.8502C490.096 56.811 490.506 56.1058 490.06 54.4397C489.352 54.0343 489.352 54.0343 488.793 54.1842L489.239 55.8502Z" fill="#009E45"/>
<path d="M493.707 54.6526C494.005 55.7633 494.153 56.3186 494.712 56.1688C494.712 56.1688 495.123 55.4636 494.974 54.9082C494.825 54.3529 494.117 53.9474 494.117 53.9474C493.558 54.0973 493.558 54.0973 493.707 54.6526Z" fill="#009E45"/>
<path d="M498.429 61.1136C497.459 61.9687 497.608 62.5241 498.726 62.2243C499.845 61.9246 500.106 60.6639 499.398 60.2585C499.251 59.7083 498.839 60.4084 498.429 61.1136Z" fill="#009E45"/>
<path d="M499.172 63.8904C498.613 64.0402 498.762 64.5956 499.47 65.0011C500.327 65.9619 500.326 65.9619 500.029 64.8512C500.291 63.5906 499.583 63.1851 499.172 63.8904Z" fill="#009E45"/>
<path d="M475.345 64.3303C474.376 65.1854 474.525 65.7408 474.673 66.2961C474.822 66.8515 476.351 65.8465 476.053 64.7358C476.464 64.0306 475.756 63.6251 475.345 64.3303Z" fill="#009E45"/>
<path d="M481.674 65.6045C481.264 66.3097 480.853 67.0149 481.002 67.5703C481.71 67.9757 481.71 67.9758 482.531 66.5653C483.203 64.5995 483.056 64.0493 481.674 65.6045Z" fill="#009E45"/>
<path d="M481.159 59.2063C480.041 59.506 480.338 60.6167 481.046 61.0222C481.754 61.4277 482.724 60.5726 482.016 60.1671C481.308 59.7617 481.308 59.7616 481.159 59.2063Z" fill="#009E45"/>
<path d="M483.914 56.0871C482.796 56.3869 482.796 56.3868 483.093 57.4975C483.242 58.0528 483.391 58.6082 483.801 57.903L485.479 57.4533C486.038 57.3034 485.181 56.3427 483.914 56.0871Z" fill="#009E45"/>
<path d="M478.895 48.5153C478.335 48.6652 478.782 50.3313 480.049 50.5869C480.198 51.1422 480.757 50.9923 480.757 50.9923C481.309 50.8387 479.449 48.3669 478.895 48.5153Z" fill="#009E45"/>
<path d="M489.422 58.7716C489.273 58.2163 489.125 57.6609 489.125 57.6609C488.268 56.7001 487.709 56.85 487.298 57.5553C487.447 58.1106 487.596 58.666 487.596 58.666C488.453 59.6268 490.13 59.1771 489.422 58.7716Z" fill="#009E45"/>
<path d="M480.53 54.6189C479.411 54.9187 479.411 54.9187 479.709 56.0294C480.417 56.4349 480.417 56.4349 480.976 56.285C482.088 55.9815 481.792 54.8759 480.53 54.6189Z" fill="#009E45"/>
<path d="M498.622 55.121L498.062 55.2708C496.944 55.5706 497.39 57.2367 498.098 57.6421C498.806 58.0476 499.776 57.1925 499.068 56.787L498.622 55.121Z" fill="#009E45"/>
<path d="M525.171 40.2726C524.463 39.8671 523.606 38.9063 522.898 38.5008C522.19 38.0953 519.512 37.0275 517.39 35.8163C513.445 34.4928 512.18 34.2423 506.968 32.6632C505.141 32.5575 504.29 31.5953 504.141 31.04C503.992 30.4846 503.284 30.0792 502.576 29.6737C501.16 28.8628 500.453 28.4573 500.305 27.9072C500.156 27.3518 499.3 26.391 499.3 26.391C498.741 26.5409 498.147 24.3247 497.552 22.1033C496.512 18.2211 496.215 17.1105 494.092 15.8993C493.235 14.9384 491.821 14.1327 491.267 14.2812C490.559 13.8757 490.41 13.3203 491.197 9.54381C491.161 7.17255 492.24 4.50817 492.501 3.2476C493.173 1.2818 493.026 0.731638 491.908 1.0314C491.348 1.18128 490.27 3.84571 489.633 8.18277L488.478 15.0344L486.246 15.6325C482.896 16.5304 481.368 17.5353 480.587 21.3104C479.651 24.5316 480.691 28.4139 482.405 30.3355C483.261 31.2963 482.851 32.0015 480.768 33.155C480.209 33.3049 479.239 34.16 478.275 35.0137C476.895 36.574 477.044 37.1294 477.637 39.3455C478.231 41.5617 478.38 42.1171 477.82 42.267C474.471 43.1649 470.37 50.2105 468.392 58.4674C467.201 62.9477 467.088 64.7636 467.866 69.9064C468.347 73.9385 468.234 75.7545 467.675 75.9044C467.116 76.0542 466.556 76.2041 466.146 76.9093C465.325 78.3198 464.468 77.359 472.913 88.7689C478.081 96.896 484.26 106.538 484.853 108.754C485.151 109.865 485.299 110.42 485.71 109.715C486.828 109.415 487.536 109.821 489.655 111.038C493.188 113.062 500.077 114.191 505.96 113.799C508.34 113.757 511.695 112.857 513.927 112.259C517.128 110.806 526.44 105.339 529.344 102.775C530.313 101.92 531.426 101.622 531.985 101.472C532.545 101.322 533.366 99.9118 533.771 99.2079C535.002 97.0923 535.002 97.0922 535.859 98.053C536.715 99.0138 537.126 98.3086 537.09 95.9374C537.352 94.6768 537.133 89.3842 537.057 84.6482C535.688 68.3713 535.652 66.0001 535.469 63.0786C535.994 60.5627 535.696 59.452 533.8 54.609C532.165 48.5054 527.854 41.3391 525.171 40.2726ZM483.377 20.5625C484.906 19.5575 484.757 19.0021 483.639 19.3019L483.49 18.7466C483.341 18.1912 484.46 17.8914 486.132 17.4432C487.81 16.9935 487.81 16.9935 488.107 18.1042C488.405 19.2149 488.405 19.2149 488.405 19.2149C488.256 18.6596 487.138 18.9594 486.578 19.1092C485.46 19.409 485.906 21.075 487.88 21.7309C490.706 23.3542 493.913 21.8995 493.169 19.1228C492.871 18.0121 491.753 18.3119 491.343 19.0171C490.932 19.7223 490.783 19.167 490.486 18.0563C490.599 16.2404 490.599 16.2404 491.866 16.4959C493.692 16.6016 495.994 20.7409 494.173 20.6338C494.173 20.6338 493.911 21.8943 493.648 23.1497L493.946 24.2604C493.797 23.705 493.387 24.4103 492.976 25.1155C492.566 25.8208 492.155 26.5259 492.155 26.5259C491.596 26.6758 491.596 26.6758 491.745 27.2312C491.894 27.7865 491.893 27.7865 491.334 27.9364C490.067 27.6808 490.216 28.2362 491.073 29.197C491.781 29.6024 492.34 29.4526 492.34 29.4526C492.899 29.3027 493.458 29.1528 493.458 29.1528C493.607 29.7081 493.048 29.858 492.637 30.5633C491.519 30.863 490.96 31.0129 490.662 29.9022C489.098 28.5359 487.985 28.8343 488.985 30.3519C489.134 30.9072 489.282 31.4626 488.723 31.6125C487.045 32.0621 484.072 29.8887 483.625 28.2226C482.334 25.5982 482.408 21.4176 483.377 20.5625ZM480.649 34.9671C481.618 34.112 481.618 34.112 482.326 34.5175C482.475 35.0728 483.034 34.9229 483.444 34.2177C484.414 33.3626 484.973 33.2127 486.235 33.4697C490.031 34.2379 497.147 31.7355 497.111 29.3642C497.372 28.1036 497.932 27.9537 498.937 29.4699C499.235 30.5806 499.942 30.9861 501.208 31.2365C501.767 31.0866 502.475 31.4921 502.065 32.1973C501.654 32.9025 501.095 33.0524 500.536 33.2023L499.977 33.3521C499.007 34.2072 501.279 35.9737 501.838 35.8238C502.397 35.674 503.551 37.7455 503.139 38.4456C503.139 38.4456 501.462 38.8952 500.2 38.6382C496.553 38.4254 495.993 38.5752 496.291 39.6859C496.44 40.2413 496.178 41.5019 495.767 42.2071C495.095 44.1729 494.536 44.3228 493.536 42.8052C493.387 42.2499 492.679 41.8444 492.12 41.9943C491.561 42.1442 490.145 41.3332 489.848 40.2226C488.991 39.2618 488.432 39.4117 487.873 39.5616C487.462 40.2668 487.313 39.7114 487.165 39.156C486.718 37.49 485.6 37.7898 485.338 39.0504C485.338 39.0504 485.338 39.0503 485.19 38.495C484.184 36.9788 483.625 37.1288 483.214 37.834C482.953 39.0946 484.814 41.5663 485.932 41.2665C486.491 41.1166 487.05 40.9668 487.05 40.9668C487.199 41.5221 485.3 45.597 484.74 45.7469C483.622 46.0467 483.325 44.9359 484.294 44.0808C485.115 42.6704 484.67 41.0096 482.695 40.3485C479.457 39.4475 478.155 36.8258 480.649 34.9671ZM489.023 41.6396L488.612 42.3449L487.904 41.9394C487.756 41.384 487.756 41.3841 487.756 41.3841C488.315 41.2342 488.874 41.0843 489.023 41.6396ZM468.559 79.2275C467.702 78.2667 467.703 78.2666 469.529 78.3723C470.647 78.0726 471.355 78.4781 470.385 79.3332C470.124 80.5937 469.565 80.7436 468.559 79.2275ZM471.391 80.8493C471.653 79.5887 472.212 79.4388 473.069 80.3996C473.069 80.3996 472.807 81.6603 472.396 82.3655C471.015 83.9206 470.866 83.3652 471.391 80.8493ZM472.728 85.8422C472.58 85.2868 472.841 84.0263 473.664 82.621C474.484 81.2106 474.336 80.6552 474.633 81.7659C474.782 82.3213 474.52 83.5818 474.257 84.8372C473.435 86.2425 473.435 86.2424 472.728 85.8422ZM475.148 88.1641C475 87.6088 474.702 86.4981 475.112 85.7929C475.784 83.8271 475.784 83.827 476.641 84.7878C476.79 85.3432 476.528 86.6038 476.265 87.8591C475.595 89.8301 475.595 89.8301 475.148 88.1641ZM476.742 91.8978C476.593 91.3425 476.296 90.2318 476.706 89.5266C476.968 88.266 477.527 88.1161 477.527 88.1161C478.385 89.0821 477.45 92.3033 476.742 91.8978ZM478.9 95.4803C478.341 95.6302 477.746 93.4088 478.42 91.4482L479.241 90.0377L479.538 91.1484C479.836 92.2591 480.133 93.3698 479.721 94.0699C479.87 94.6252 479.459 95.3305 478.9 95.4803ZM480.614 97.4019C480.465 96.8466 480.168 95.7358 480.727 95.5859C481.137 94.8807 481.137 94.8808 481.845 95.2862C481.994 95.8416 482.291 96.9523 481.879 97.6523C481.468 98.3523 481.469 98.3576 480.614 97.4019ZM483.776 102.495C483.627 101.94 482.771 100.979 482.622 100.424C482.473 99.8685 482.473 99.8685 482.473 99.8685C483.032 99.7186 483.74 100.124 484.038 101.235C485.187 103.308 484.925 104.568 483.776 102.495ZM491.587 109.324C489.612 108.663 489.316 107.558 489.167 107.002C488.87 105.892 488.721 105.336 488.013 104.931C487.305 104.525 486.597 104.12 486.449 103.565C486.002 101.899 483.363 94.2841 482.358 92.7679C482.209 92.2126 481.056 90.1463 480.051 88.6301C477.298 82.8263 476.555 80.0547 477.227 78.0889C478.458 75.9732 478.459 75.9733 479.31 76.9355C479.459 77.4908 480.875 78.3017 482.284 79.1089C483.848 80.4751 483.996 81.0253 486.636 88.645C487.825 93.0826 490.166 99.5865 491.208 103.474C492.807 107.206 493.698 110.533 493.698 110.533C493.698 110.533 492.443 110.28 491.587 109.324ZM491.411 97.4784C491.113 96.3677 491.602 91.4804 492.156 91.332C492.567 90.6267 492.828 89.3662 493.793 88.5125C494.054 87.2519 494.317 85.9965 494.728 85.2913C494.728 85.2913 495.138 84.5861 494.579 84.736C493.871 84.3305 491.824 87.8552 491.038 91.6317L490.514 94.1529L490.068 92.4869C488.914 90.4154 489.587 88.4548 492.046 84.23C492.308 82.9695 492.571 81.7141 492.422 81.1587C492.273 80.6034 490.786 83.9782 489.291 87.3493C487.946 91.2757 488.173 87.6491 489.37 83.1673C491.644 76.016 492.911 76.2715 494.991 84.0359C495.882 87.3628 496.031 87.9182 494.543 91.293C493.871 93.2588 492.792 95.9232 492.941 96.4785C492.268 98.4392 491.708 98.5891 491.411 97.4784ZM487.399 82.4996C487.958 82.3498 488.368 81.6446 488.219 81.0892C488.891 79.1234 490.791 75.0486 491.088 76.1593C491.088 76.1593 490.268 77.5697 490.006 78.8303C489.185 80.2407 488.512 82.2013 488.255 83.4605L487.583 85.4263L487.137 83.7603C486.839 82.6496 486.84 82.6495 487.399 82.4996ZM486.097 79.8781C486.097 79.8781 485.8 78.7673 486.21 78.0621C486.62 77.3568 486.882 76.0962 487.293 75.391C487.405 73.5751 488.524 73.2753 488.97 74.9414C489.678 75.3468 489.268 76.0521 488.708 76.2019C488.298 76.9072 487.328 77.7624 487.477 78.3177C487.067 79.0229 486.656 79.7282 486.097 79.8781ZM496.946 111.454C496.387 111.603 495.68 111.198 495.68 111.198C495.531 110.643 495.531 110.643 495.531 110.643C496.09 110.493 496.649 110.343 496.798 110.898L496.946 111.454ZM494.794 107.87L493.605 103.432C492.714 100.105 492.714 100.105 494.875 94.7698C496.328 89.0289 496.887 88.879 497.482 91.1004L498.225 93.8719C498.373 94.4273 498.671 95.5379 498.112 95.6878C497.553 95.8377 496.732 97.2481 496.623 99.0575C495.802 100.468 495.54 101.728 495.688 102.279C495.128 102.428 494.496 106.759 495.05 106.611C495.199 107.166 496.544 103.239 497.063 100.72C497.324 99.4591 497.586 98.1985 498.552 97.35L498.664 95.5341L498.962 96.6448C499.259 97.7555 498.996 99.0109 498.735 100.272C498.473 101.532 497.8 103.493 497.538 104.753C497.025 107.272 496.055 108.127 494.794 107.87ZM499.335 102.491C499.711 99.4201 500.27 99.2703 500.007 100.526C500.007 100.526 500.305 101.636 499.482 103.042L498.661 104.452L499.335 102.491ZM502.419 111.767C501.86 111.917 501.711 111.361 501.562 110.806C502.121 110.656 503.24 110.356 503.388 110.912C503.39 110.917 502.978 111.617 502.419 111.767ZM501.083 106.779C499.964 107.079 499.965 107.079 500.077 105.263C500.75 103.297 501.309 103.147 501.755 104.813C502.052 105.924 501.642 106.629 501.083 106.779ZM508.084 106.087C508.084 106.087 507.673 106.793 508.53 107.753C508.976 109.42 508.976 109.42 507.263 107.498C506.965 106.387 506.406 106.537 505.847 106.687C505.996 107.242 506.145 107.798 507.001 108.758C507.858 109.719 508.154 110.825 508.154 110.825C507.036 111.125 505.883 109.058 505.585 107.948C505.437 107.392 504.729 106.987 504.58 106.431C504.021 106.581 501.827 100.628 499.302 91.2023C497.074 82.8825 494.583 75.8233 494.435 75.2679C494.435 75.2679 494.137 74.1572 494.251 72.3465L494.775 69.8254L496.488 71.747C497.493 73.2631 499.057 74.6242 499.354 75.7349C501.066 77.6513 508.643 105.938 508.084 106.087ZM513.147 107.111C512.998 106.556 512.998 106.556 513.558 106.406L514.117 106.256C514.265 106.811 513.855 107.517 513.855 107.517C513.296 107.666 513.296 107.667 513.147 107.111ZM514.449 109.733L514.3 109.177C514.151 108.622 514.71 108.472 514.71 108.472C514.71 108.472 515.269 108.322 515.418 108.878C515.413 108.879 515.003 109.584 514.449 109.733ZM514.224 104.442C514.076 103.886 513.927 103.331 514.486 103.181C514.486 103.181 515.045 103.031 515.194 103.586C515.343 104.142 514.932 104.847 514.932 104.847C514.373 104.997 514.373 104.997 514.224 104.442ZM515.378 106.513C515.23 105.958 515.789 105.808 515.789 105.808C515.789 105.808 516.348 105.658 516.497 106.213C516.497 106.213 516.086 106.919 515.527 107.068L515.378 106.513ZM517.65 108.28C517.09 108.429 516.942 107.874 516.942 107.874C516.793 107.319 516.793 107.319 517.352 107.169C517.352 107.169 517.911 107.019 518.06 107.574L517.65 108.28ZM514.564 98.999C514.154 99.7042 513.333 101.115 513.482 101.67C513.631 102.225 513.22 102.931 513.072 102.375C512.215 101.414 511.656 101.564 512.102 103.23C512.251 103.786 511.989 105.046 511.989 105.046C510.311 105.496 510.835 102.975 512.888 99.4539C513.972 96.788 515.496 95.7844 515.645 96.3397C515.797 96.8885 514.827 97.7436 514.564 98.999ZM512.442 97.7878C510.394 101.307 509.983 102.013 509.687 100.907C509.538 100.352 510.211 98.386 511.848 95.5716C513.486 92.7573 514.456 91.9022 514.605 92.4575C514.757 93.0063 513.673 95.6721 512.442 97.7878ZM508.497 96.4644C508.2 95.3537 508.463 94.0982 509.951 90.7234C512.409 86.4986 512.409 86.4986 512.854 88.1595C513.151 89.2702 512.89 90.5307 512.216 92.4913L509.758 96.7161C508.943 98.1304 508.943 98.1304 508.497 96.4644ZM512.266 85.9418C511.706 86.0917 510.326 87.6521 509.658 89.6113C508.427 91.727 507.199 93.8361 507.199 93.8361C507.199 93.8361 507.051 93.2808 506.902 92.7254C506.604 91.6147 511.117 83.869 512.23 83.5707C512.23 83.5707 512.789 83.4208 513.086 84.5315C513.23 85.0882 512.825 85.792 512.266 85.9418ZM506.007 89.4051C505.858 88.8498 507.089 86.7341 508.727 83.9197C511.037 79.1396 510.889 78.5843 511.335 80.2503C511.484 80.8057 510.812 82.7715 508.615 85.7357C507.387 87.8448 506.007 89.4051 506.007 89.4051ZM510.853 76.2131C511.001 76.7684 509.77 78.8841 507.722 82.4036L504.853 87.3336L504.818 84.9675C504.223 82.7461 505.456 80.6357 509.033 76.1111L510.413 74.5508L510.858 76.2117L510.853 76.2131ZM504.791 73.677C506.427 70.8575 507.546 70.5577 506.319 72.6719C506.468 73.2273 505.647 74.6378 504.83 76.0416C502.624 79.0138 502.739 77.2031 504.791 73.677ZM503.376 72.8712C503.079 71.7605 504.722 68.9448 505.424 69.3517C505.573 69.907 505.722 70.4624 505.312 71.1676C503.935 72.7213 503.524 73.4214 503.376 72.8712ZM508.7 72.6292C508.848 73.1845 509.146 74.2952 508.735 75.0004C507.355 76.5608 504.338 80.9355 504.189 80.3801C504.04 79.8248 504.861 78.4143 506.088 76.3052C507.171 73.6342 508.7 72.6292 508.7 72.6292ZM518.099 101.028C517.504 98.8064 517.504 98.8063 518.807 101.433C519.812 102.949 520.667 103.905 520.816 104.46C519.995 105.871 518.282 103.949 518.099 101.028ZM523.424 100.791C522.865 100.941 522.567 99.8301 522.418 99.2747C522.27 98.7194 521.264 97.2032 521.117 96.6531C519.552 95.2868 518.434 95.5866 519.439 97.1027C519.588 97.6581 520.593 99.1742 521.449 100.13C522.454 101.646 522.75 102.751 522.191 102.901C521.781 103.607 520.775 102.09 519.176 98.3581C518.171 96.8419 517.315 95.8863 516.756 96.0362C516.346 96.7414 515.751 94.5201 513.749 82.5736C512.044 71.7327 511.896 71.1773 512.826 67.9576L513.761 64.7364L516.329 67.6136C518.043 69.5352 518.339 70.6408 518.785 72.3068C519.082 73.4175 518.821 74.678 518.409 75.3781C517.999 76.0833 518.443 77.7442 519.414 76.8942C519.825 76.189 520.122 77.2998 521.12 87.7352C521.862 90.5068 521.898 92.878 521.339 93.0278C521.339 93.0278 521.932 95.244 522.379 96.9101C523.685 99.5303 523.424 100.791 523.424 100.791ZM523.183 66.3718C524.672 63.0021 525.231 62.8523 525.939 63.2578C526.088 63.8131 526.237 64.3684 524.855 65.9236C524.594 67.1842 523.624 68.0393 523.219 68.7431C520.201 73.1178 520.76 72.9678 520.464 71.8623C520.168 70.7569 520.166 70.7517 520.166 70.7517C520.724 70.5966 521.956 68.4809 523.183 66.3718ZM520.541 67.6752L521.213 65.7094C521.885 63.7436 523.113 61.6345 523.821 62.0399C523.821 62.0399 523.559 63.3005 522.184 64.8594L520.541 67.6752ZM523.664 70.4039C524.895 68.2882 526.271 66.7345 526.83 66.5846C527.949 66.2849 527.687 67.5454 526.866 68.9558C526.307 69.1057 524.522 71.3699 523.7 72.7752C520.276 77.8537 520.235 75.4838 523.664 70.4039ZM524.555 73.7308C526.34 71.4667 527.573 69.3562 527.573 69.3562C528.132 69.2063 528.281 69.7616 528.578 70.8723C528.317 72.1328 528.614 73.2435 528.055 73.3934C528.055 73.3934 526.121 75.1023 525.037 77.7681C522.019 82.1427 522.019 82.1427 522.133 80.332C521.834 79.2161 522.918 76.5503 524.555 73.7308ZM523.844 82.2432C524.665 80.8328 525.892 78.7237 526.154 77.4631C527.643 74.0935 528.761 73.7937 529.206 75.4546C529.355 76.0099 529.093 77.2705 528.534 77.4204C527.975 77.5703 524.285 83.9107 523.617 85.8699L524.063 87.5359C524.771 87.9414 525.068 89.0521 525.217 89.6075C524.955 90.868 524.396 91.0179 523.539 90.0571C523.539 90.0571 523.093 88.3911 522.797 87.2856C522.91 85.4697 523.172 84.209 523.844 82.2432ZM526.563 85.681C526.711 86.2363 526.301 86.9416 526.301 86.9416C525.742 87.0914 525.593 86.5362 525.593 86.5362C525.444 85.9808 525.296 85.4254 525.855 85.2755C525.855 85.2755 526.414 85.1257 526.563 85.681ZM524.619 96.3039C524.322 95.1932 524.173 94.6379 524.173 94.6379C525.291 94.3382 526.148 95.299 525.886 96.5595C525.773 98.3754 525.066 97.97 524.619 96.3039ZM527.035 98.6324C526.625 99.3377 526.625 99.3376 526.625 99.3376C526.327 98.2269 526.738 97.5218 527.446 97.9273C527.446 97.9273 527.594 98.4826 527.035 98.6324ZM525.698 93.6395C525.549 93.0842 525.251 91.9735 525.662 91.2683C525.924 90.0077 526.072 90.5631 526.929 91.5239C527.078 92.0792 527.227 92.6345 526.816 93.3397C526.406 94.045 526.406 94.045 525.698 93.6395ZM528.528 95.2562C527.707 96.6666 527.148 96.8165 527.969 95.4061C527.671 94.2954 528.231 94.1455 528.79 93.9956C529.35 93.8509 529.499 94.4063 528.528 95.2562ZM527.899 90.6687C527.191 90.2633 526.597 88.0471 527.156 87.8972C527.716 87.7473 527.716 87.7473 528.423 88.1527C528.865 89.8202 528.607 91.0742 527.899 90.6687ZM530.017 91.8865C529.458 92.0364 529.458 92.0364 529.458 92.0364C529.309 91.4811 529.161 90.9257 529.72 90.7758L530.279 90.626C530.428 91.1813 530.017 91.8865 530.017 91.8865ZM528.531 86.3382C527.675 85.3774 528.085 84.6723 528.942 85.6331C529.798 86.5939 529.947 87.1492 529.947 87.1492C529.388 87.2991 528.829 87.4489 528.531 86.3382ZM529.134 79.6403C528.724 80.3456 528.873 80.9009 529.318 82.5617C530.47 84.628 530.06 85.3333 529.056 83.8223C528.05 82.3062 527.491 82.4561 527.23 83.7166C527.23 83.7166 527.23 83.7166 527.081 83.1613C526.224 82.2005 528.683 77.9757 529.391 78.3811C529.396 78.3797 529.545 78.9351 529.134 79.6403ZM533.48 89.1727C533.629 89.728 532.213 88.9172 532.475 87.6566C532.177 86.5459 532.177 86.5459 533.034 87.5067L533.48 89.1727ZM532.999 85.1406C532.999 85.1406 532.44 85.2905 532.291 84.7352C531.286 83.219 531.286 83.219 532.702 84.0299C532.851 84.5853 532.999 85.1406 532.999 85.1406ZM533.673 83.18C532.965 82.7745 531.961 81.2636 531.663 80.1529L530.511 78.0866L532.782 79.8531C533.638 80.8139 534.083 82.4748 534.232 83.0302C534.528 84.1357 534.528 84.1356 533.673 83.18ZM532.084 61.6052C532.381 62.7159 532.118 63.9714 532.415 65.0821C532.713 66.1927 532.303 66.8979 531.743 67.0478C531.743 67.0478 531.892 67.6031 532.041 68.1585C532.338 69.2692 532.077 70.5298 531.518 70.6797C531.518 70.6797 531.518 70.6796 531.666 71.235C531.815 71.7903 531.405 72.4956 531.553 73.0509C531.143 73.7561 531.292 74.3114 532.445 76.3777C535.162 79.8103 534.603 79.9603 532.034 77.083C530.321 75.1614 530.025 74.0559 530.103 69.8739C529.954 69.3186 529.657 68.2079 529.92 66.9525C529.884 64.5812 531.076 60.1009 532.194 59.8011C532.198 59.7945 532.347 60.3498 532.084 61.6052ZM530.45 55.5068C530.45 55.5068 530.04 56.2121 529.927 58.028C529.106 59.4384 528.991 61.2492 528.437 61.3976C527.468 62.2527 524.641 60.6295 524.905 59.3741C524.756 58.8188 524.756 58.8188 524.196 58.9687C523.637 59.1185 522.93 58.7131 522.781 58.1577C521.775 56.6416 520.401 58.2005 519.763 62.5323L518.571 67.0127L516.71 64.5409C513.588 61.8122 511.761 61.7065 511.945 64.6279C511.683 65.8885 510.862 67.2989 510.605 68.5529C508.814 70.8184 508.814 70.8184 506.66 67.2294C505.803 66.2686 504.946 65.3078 504.946 65.3078C504.387 65.4577 503.566 66.8682 502.339 68.9773C501.814 71.4932 500.998 72.9022 500.998 72.9022C500.439 73.0521 499.583 72.0913 497.876 70.1734C494.307 65.7787 492.629 66.2284 492.289 71.6709C492.587 72.7816 492.324 74.0369 491.765 74.1868C491.205 74.3367 487.934 71.0527 488.19 69.7935C488.601 69.0883 487.893 68.6827 487.483 69.388C486.364 69.6877 485.954 70.393 485.839 72.2037C485.463 75.275 484.237 77.3893 482.97 77.1337C481.703 76.8781 477.575 72.6332 477.838 71.3778C478.101 70.1224 477.392 69.7118 476.981 70.417C476.981 70.417 476.571 71.1222 476.72 71.6776C476.869 72.2329 476.458 72.9381 476.607 73.4935C476.048 73.6433 476.345 74.754 475.935 75.4593C476.084 76.0146 475.673 76.7199 475.263 77.4251C474.852 78.1303 474.293 78.2802 473.436 77.3194C470.463 75.146 469.719 72.3693 469.198 65.9725C469.094 58.8691 472.857 48.348 476.73 44.929C478.515 42.6648 483.691 41.8727 481.347 44.2868C480.937 44.992 482.238 47.6136 483.505 47.8692C484.772 48.1248 486.445 47.6765 487.117 45.7107C488.348 43.595 490.728 43.5523 492.442 45.4739C494.006 46.8401 496.238 46.242 497.32 43.5709C497.845 41.055 499.517 40.6068 501.491 41.2627C502.907 42.0736 504.579 41.6254 504.841 40.3648C505.4 40.2149 505.513 38.399 505.217 37.2935C504.77 35.6275 504.622 35.0721 505.181 34.9222C506.299 34.6225 516.163 37.9253 519.547 39.3935C524.347 41.6726 527.772 45.5106 530.52 51.3159C531.979 54.5018 532.276 55.6125 530.45 55.5068Z" fill="#009E45"/>
<path d="M523.675 52.5666C523.824 53.1219 523.264 53.2719 522.705 53.4218C522.146 53.5716 522.146 53.5717 522.295 54.127C522.443 54.6823 522.592 55.2377 523.151 55.0878C524.27 54.788 525.234 53.9343 524.234 52.4167C523.936 51.3061 523.936 51.306 523.675 52.5666Z" fill="#009E45"/>
<path d="M523.158 46.1634C523.158 46.1634 523.158 46.1634 523.456 47.274C523.604 47.8294 523.753 48.3847 524.312 48.2348C524.872 48.0849 524.723 47.5296 524.574 46.9743C523.717 46.0135 523.158 46.1634 523.158 46.1634Z" fill="#009E45"/>
<path d="M517.909 51.1362C517.909 51.1362 518.057 51.6915 518.206 52.2469C519.063 53.2077 520.181 52.9079 520.443 51.6473C520.289 51.0934 518.314 50.4324 517.909 51.1362Z" fill="#009E45"/>
<path d="M496.805 37.1728C497.364 37.023 497.923 36.8731 497.923 36.8731C497.923 36.8731 498.483 36.7232 498.893 36.018C499.714 34.6075 499.006 34.2021 496.769 34.8016C495.242 35.8118 495.539 36.9224 496.805 37.1728Z" fill="#009E45"/>
<path d="M491.665 40.3364C492.224 40.1865 492.783 40.0366 493.193 39.3313C493.193 39.3313 493.753 39.1814 494.312 39.0316C494.871 38.8817 495.43 38.7318 495.43 38.7318C495.281 38.1764 494.163 38.4762 493.604 38.6261C492.486 38.9259 491.224 38.6689 490.664 38.8188C489.546 39.1185 489.546 39.1185 489.695 39.6739C489.844 40.2292 491.111 40.4848 491.665 40.3364Z" fill="#009E45"/>
<path d="M518.096 45.1449C517.799 44.0342 517.239 44.1841 516.68 44.334C515.562 44.6337 515.562 44.6337 516.419 45.5945C517.274 46.5501 518.392 46.2504 518.096 45.1449Z" fill="#009E45"/>
<path d="M509.351 41.5421C508.084 41.2866 508.084 41.2866 508.233 41.8419C508.382 42.3973 508.53 42.9526 509.649 42.6528C510.208 42.503 510.618 41.7977 510.618 41.7977C510.618 41.7977 509.91 41.3923 509.351 41.5421Z" fill="#009E45"/>
<path d="M505.397 58.0612C505.545 58.6165 506.253 59.0219 506.664 58.3167C507.074 57.6115 506.925 57.0561 506.217 56.6507C504.95 56.3951 504.54 57.1003 505.397 58.0612Z" fill="#009E45"/>
<path d="M516.234 42.6679C516.793 42.518 516.645 41.9626 516.496 41.4073C516.198 40.2966 515.08 40.5964 515.378 41.7071C515.532 42.261 515.68 42.8164 516.234 42.6679Z" fill="#009E45"/>
<path d="M508.039 56.7578C508.039 56.7578 508.187 57.3131 508.336 57.8685C509.044 58.2739 509.044 58.2739 508.895 57.7186C509.157 56.458 508.449 56.0526 508.039 56.7578Z" fill="#009E45"/>
<path d="M500.52 51.0409C499.96 51.1908 500.407 52.8567 501.674 53.1123C502.941 53.3679 503.5 53.218 503.352 52.6626C503.203 52.1073 501.079 50.891 500.52 51.0409Z" fill="#009E45"/>
<path d="M502.978 46.8162C502.83 46.2608 502.122 45.8553 502.122 45.8553C501.563 46.0052 501.562 46.0053 501.711 46.5606C502.009 47.6713 502.158 48.2266 502.717 48.0767C502.722 48.0753 503.127 47.3715 502.978 46.8162Z" fill="#009E45"/>
<path d="M508.155 46.0238C508.714 45.874 508.006 45.4685 507.857 44.9132C507.149 44.5077 507.298 45.0631 507.446 45.6184C507.446 45.6184 507.595 46.1738 507.744 46.7291C508.303 46.5793 508.303 46.5792 508.155 46.0238Z" fill="#009E45"/>
<path d="M510.2 51.4223C510.2 51.4223 509.64 51.5722 509.081 51.7221C508.522 51.872 508.522 51.8719 508.373 51.3166C508.373 51.3166 507.666 50.9111 507.814 51.4664C507.814 51.4664 508.112 52.5772 508.82 52.9827C510.384 54.3489 511.497 54.0505 510.646 53.0883L510.2 51.4223Z" fill="#009E45"/>
<path d="M514.632 47.8535C514.632 47.8535 515.34 48.2589 515.899 48.1091C516.458 47.9592 516.012 46.2931 515.306 45.8929C514.039 45.6373 513.775 46.8927 514.632 47.8535Z" fill="#009E45"/>
<path d="M511.617 43.3101C511.617 43.3101 511.766 43.8654 511.915 44.4208C512.623 44.8262 512.623 44.8263 512.474 44.2709C512.736 43.0103 512.028 42.6049 511.617 43.3101Z" fill="#009E45"/>
<path d="M512.139 49.7121C512.847 50.1176 513.817 49.2625 513.519 48.1518C513.519 48.1518 512.96 48.3017 512.401 48.4516C511.282 48.7513 511.431 49.3066 512.139 49.7121Z" fill="#009E45"/>
<path d="M533.856 86.1015C533.856 86.1015 533.856 86.1015 534.005 86.6568C534.153 87.2122 534.302 87.7676 534.153 87.2122C534.153 87.2122 534.005 86.6569 533.856 86.1015Z" fill="#009E45"/>
<rect width="557" height="319" fill="#009E45" fill-opacity="0.18"/>
</g>
<defs>
<clipPath id="clip0_202_2">
<rect width="557" height="319" fill="white"/>
</clipPath>
</defs>
</svg>
